<svg xmlns="http://www.w3.org/2000/svg" viewBox="0 0 43.88 43.88"><defs><style>.cls-1,.cls-2{fill:none;stroke:#fff;stroke-miterlimit:10;}.cls-1{stroke-width:1.13px;}.cls-2{stroke-width:0.76px;}</style></defs><title>Fichier 1</title><g id="Calque_2" data-name="Calque 2"><g id="Calque_1-2" data-name="Calque 1"><circle class="cls-1" cx="21.94" cy="21.94" r="21.38"/><circle class="cls-2" cx="17.23" cy="18.22" r="1.82"/><circle class="cls-2" cx="27.3" cy="18.43" r="1.82"/><polygon class="cls-2" points="24.25 22.4 20.39 22.4 22.32 18.92 22.32 18.92 24.25 22.4"/><rect class="cls-2" x="18.7" y="24.68" width="7.97" height="3.04"/><rect class="cls-2" x="31.22" y="17.47" width="2.66" height="7.21"/><rect class="cls-2" x="9.97" y="17.47" width="2.66" height="7.21"/><rect class="cls-2" x="18.7" y="24.68" width="3.79" height="3.04"/><rect class="cls-2" x="18.7" y="24.68" width="1.52" height="3.04"/><rect class="cls-2" x="24.77" y="24.68" width="1.9" height="3.04"/><rect class="cls-2" x="17.56" y="30.37" width="9.49" height="5.69"/><rect class="cls-2" x="12.63" y="11.78" width="18.6" height="18.6"/><path class="cls-2" d="M31.33,15.37"/><circle class="cls-2" cx="22.3" cy="6.13" r="1.82"/><line class="cls-2" x1="22.11" y1="7.6" x2="22.11" y2="11.78"/></g></g></svg>