<svg xmlns="http://www.w3.org/2000/svg" viewBox="0 0 310 306"><defs><style>.cls-1{fill:none;stroke:#fff;stroke-miterlimit:10;stroke-width:2px;}</style></defs><title>Fichier 16</title><g id="Calque_2" data-name="Calque 2"><g id="Calque_2-2" data-name="Calque 2"><circle class="cls-1" cx="146.16" cy="73.43" r="3.79"/><circle class="cls-1" cx="167.11" cy="73.88" r="3.79"/><polygon class="cls-1" points="160.76 82.51 152.73 82.51 156.75 75.27 156.75 75.27 160.76 82.51"/><rect class="cls-1" x="175.5" y="71.51" width="5" height="15"/><rect class="cls-1" x="131.5" y="71.51" width="5" height="15"/><rect class="cls-1" x="146.5" y="99.51" width="20" height="11"/><rect class="cls-1" x="246.5" y="108.51" width="15" height="15"/><rect class="cls-1" x="246.5" y="108.51" width="15" height="5"/><rect class="cls-1" x="246.5" y="118.51" width="15" height="5"/><polyline class="cls-1" points="246.5 108.51 213.68 141.48 183.5 110.51 128.5 110.51 98.32 141.48 65.5 108.51"/><polyline class="cls-1" points="183.5 189 183.5 132.51 203.08 152.09 213.68 162.69 252.51 123.51"/><polyline class="cls-1" points="59.49 123.51 98.32 162.69 108.92 152.09 128.5 132.51 128.5 189"/><rect class="cls-1" x="50.5" y="108.51" width="15" height="15"/><rect class="cls-1" x="50.5" y="108.51" width="15" height="5"/><rect class="cls-1" x="50.5" y="118.51" width="15" height="5"/><rect class="cls-1" x="136.5" y="59.51" width="39" height="40"/><path class="cls-1" d="M175.5,67.51"/><circle class="cls-1" cx="156.71" cy="48.3" r="3.79"/><line class="cls-1" x1="156.5" y1="51.51" x2="156.5" y2="59.51"/><line class="cls-1" x1="128.5" y1="189" x2="128.5" y2="110.51"/><line class="cls-1" x1="183.5" y1="110.51" x2="183.5" y2="189"/><polyline class="cls-1" points="128.5 110.51 128.5 124.42 128.5 130.88 128.5 189 183.5 189 183.5 130.88 183.5 124.42 183.5 110.51"/><polyline class="cls-1" points="164.5 87.51 164.5 92.51 149.5 92.51 149.5 87.51"/><rect class="cls-1" x="139.34" y="110.51" width="11.07" height="13"/><rect class="cls-1" x="128.5" y="110.51" width="11.07" height="13"/><rect class="cls-1" x="161.35" y="110.51" width="11.07" height="13"/><rect class="cls-1" x="172.43" y="110.51" width="11.07" height="13"/><rect class="cls-1" x="150.51" y="110.51" width="11.07" height="13"/><rect class="cls-1" x="13" y="11" width="283" height="178"/><rect class="cls-1" x="1" y="1" width="308" height="197"/><rect class="cls-1" x="38" y="198" width="12" height="107"/><rect class="cls-1" x="256" y="198" width="12" height="107"/><polygon class="cls-1" points="48 11 296 11 296 189 13 189 13 35 48 11"/><polyline class="cls-1" points="13 35 40.33 48.3 48 11"/></g></g></svg>