<svg xmlns="http://www.w3.org/2000/svg" viewBox="0 0 290.42 348.58"><defs><style>.cls-1{fill:#fff;}.cls-2,.cls-3{fill:none;stroke:#fff;stroke-miterlimit:10;}.cls-2{stroke-width:2px;}</style></defs><title>Fichier 11</title><g id="Calque_2" data-name="Calque 2"><g id="Calque_2-2" data-name="Calque 2"><path class="cls-1" d="M96.13,177.6l-.55,1c-.31.57-2.89,5.28-5.06,7,0,.15,0,.29,0,.42a3.35,3.35,0,0,0,0,.58,32.81,32.81,0,0,1-6.15,24.82A33.72,33.72,0,0,1,62.45,224.8a36.23,36.23,0,0,1-19.35-2.22l-.44-.19-.24-1.51,1.05,0a22.55,22.55,0,0,0,14.43-5.79c-2.49-.28-6.59-1.58-9.46-6.72l-.72-1.29h1.48s.58,0,1.34-.08a13.85,13.85,0,0,1-1.62-.7,11.82,11.82,0,0,1-6.44-9.16l-.25-1.64,1.5.72a8.34,8.34,0,0,0,2,.58,13.74,13.74,0,0,1-2-2c-1.88-2.31-3.71-6.27-1.8-12l.4-1.21,1,.82c.13.11,12.38,10.18,23.5,8a7,7,0,0,1-.53-1.67,11.92,11.92,0,0,1,9.76-14A10,10,0,0,1,84.2,177c2.14-.79,6-2.46,6.94-3.62l1.21-1.57.34,1.95a8.38,8.38,0,0,1-1.22,5.49S95,178.58,96.13,177.6ZM47.41,222.25a35.58,35.58,0,0,0,14.77.82A32,32,0,0,0,83,210.41a31.08,31.08,0,0,0,5.83-23.51,4.93,4.93,0,0,1,0-.9,3,3,0,0,0,0-.62l-.12-.6.53-.32a13.64,13.64,0,0,0,3.07-3.64,12.67,12.67,0,0,1-3.52,1.09l-3.24.37,2.62-1.94a7,7,0,0,0,2.85-4.56,37.31,37.31,0,0,1-6.6,3l-.46.16-.38-.31a8.4,8.4,0,0,0-7.16-2.14,10.2,10.2,0,0,0-8.31,12,6.5,6.5,0,0,0,.54,1.55c.1.22.2.44.29.67l.34.85-.71.28c-5.12,1.42-11.29.47-17.86-2.76a48.1,48.1,0,0,1-7.37-4.51c-2.11,8.6,5.44,12.15,5.78,12.31L51.51,198l-2.68.52a10,10,0,0,1-4.3-.17,9.82,9.82,0,0,0,5.2,6.42,12.39,12.39,0,0,0,4.52,1.3l3.07.14-2.69,1.5a10.86,10.86,0,0,1-3.9,1.06,10,10,0,0,0,9.11,4.65l2.34-.32-1.57,1.76A23.51,23.51,0,0,1,47.41,222.25Z"/><path class="cls-1" d="M223.44,238.78a9.56,9.56,0,0,1-1.39-6.26l.39-2.22,1.38,1.79c1,1.33,5.47,3.24,7.91,4.13a11.36,11.36,0,0,1,9.29-2.52c7.47,1.19,12.36,8.18,11.13,15.92a8,8,0,0,1-.61,1.9c12.67,2.46,26.65-9,26.79-9.15l1.12-.93.46,1.38c2.18,6.54.09,11.05-2.05,13.69a15.64,15.64,0,0,1-2.31,2.3,9.51,9.51,0,0,0,2.31-.66l1.71-.82-.29,1.87a13.48,13.48,0,0,1-7.34,10.45,15.82,15.82,0,0,1-1.85.8c.87.09,1.51.1,1.53.1h1.69l-.82,1.48c-3.27,5.87-7.94,7.35-10.79,7.67a25.72,25.72,0,0,0,16.46,6.61l1.2,0-.27,1.72-.5.22a41.31,41.31,0,0,1-22.06,2.53,38.45,38.45,0,0,1-25-15.22,37.42,37.42,0,0,1-7-28.31,3.87,3.87,0,0,0,0-.66c0-.15,0-.31,0-.48-2.47-2-5.42-7.35-5.77-8l-.62-1.15C219.41,238,223.44,238.78,223.44,238.78Zm35.18,40.61-1.79-2,2.67.36c.27,0,6.18.76,10.39-5.31a12.38,12.38,0,0,1-4.45-1.2l-3.07-1.71,3.5-.16a14.14,14.14,0,0,0,5.16-1.49,11.2,11.2,0,0,0,5.93-7.32,11.35,11.35,0,0,1-4.91.19l-3.06-.59,2.84-1.29c.39-.18,9-4.22,6.59-14A54.86,54.86,0,0,1,270,250c-7.49,3.68-14.53,4.77-20.36,3.15l-.81-.31.39-1c.1-.26.22-.51.33-.76a7.36,7.36,0,0,0,.62-1.76c1.05-6.64-3.11-12.63-9.48-13.64-3-.48-5.48.25-8.17,2.44l-.43.35-.53-.18a42.57,42.57,0,0,1-7.53-3.45A7.94,7.94,0,0,0,227.3,240l3,2.21-3.69-.43a14.46,14.46,0,0,1-4-1.24,15.55,15.55,0,0,0,3.5,4.15l.6.37-.14.69a3.47,3.47,0,0,0,0,.71,5.63,5.63,0,0,1,0,1,35.45,35.45,0,0,0,6.65,26.81,36.46,36.46,0,0,0,23.72,14.44,40.58,40.58,0,0,0,16.84-.94A26.81,26.81,0,0,1,258.62,279.39Z"/><path class="cls-1" d="M223,77.42a5.38,5.38,0,0,1-2.19-2.88l-.33-1.23,1.13.59c.84.44,3.57.37,5,.25a6.41,6.41,0,0,1,4.17-3.49,7.68,7.68,0,0,1,9.48,5.53,4.58,4.58,0,0,1,.14,1.12c7.09-1.73,11.54-10.93,11.58-11l.35-.74.56.6a7.75,7.75,0,0,1,2.18,7.51,8.88,8.88,0,0,1-.64,1.73,5.41,5.41,0,0,0,1-.89l.68-.83.3,1a7.62,7.62,0,0,1-1.3,7.1,8.83,8.83,0,0,1-.76.85c.47-.16.8-.31.81-.31l.87-.4-.07,1a7.89,7.89,0,0,1-3.72,6.48,14.53,14.53,0,0,0,10-.5l.61-.3.27.95-.2.23a23.34,23.34,0,0,1-10.72,6.51,21.72,21.72,0,0,1-16.43-1.89,21.14,21.14,0,0,1-10.3-12.86,2,2,0,0,0-.15-.35l-.12-.25a19,19,0,0,1-4.85-2.74l-.59-.44A9.14,9.14,0,0,0,223,77.42Zm27.65,12.51-1.39-.61,1.46-.44a6.41,6.41,0,0,0,4.08-5.18,7,7,0,0,1-2.57.44l-2-.15,1.76-.91a8,8,0,0,0,2.3-2,6.33,6.33,0,0,0,1.31-5.16,6.4,6.4,0,0,1-2.47,1.26l-1.71.42,1.15-1.33a6.82,6.82,0,0,0,.06-8.76,31,31,0,0,1-3.1,4.63c-3,3.66-6.32,5.89-9.7,6.43l-.49,0,0-.59c0-.16,0-.31,0-.47a4.17,4.17,0,0,0-.1-1.05,6.57,6.57,0,0,0-8.09-4.76,5.41,5.41,0,0,0-3.61,3.19l-.14.28-.31,0a24,24,0,0,1-4.68,0,4.49,4.49,0,0,0,2.9,1.9l2.05.43-2,.65a8.14,8.14,0,0,1-2.35.31,8.8,8.8,0,0,0,2.78,1.3l.39,0,.09.39a2,2,0,0,0,.15.37,3.18,3.18,0,0,1,.22.53,20,20,0,0,0,9.76,12.18A20.6,20.6,0,0,0,252,95.17a22.92,22.92,0,0,0,8.42-4.47A15.14,15.14,0,0,1,250.66,89.93Z"/><circle class="cls-2" cx="153.12" cy="70.45" r="3.77"/><circle class="cls-2" cx="173.96" cy="70.89" r="3.77"/><polygon class="cls-2" points="167.64 77.69 159.66 77.69 163.65 70.49 163.65 70.49 167.64 77.69"/><rect class="cls-2" x="155.81" y="82.69" width="16" height="7"/><rect class="cls-2" x="182.81" y="67.69" width="5" height="15"/><rect class="cls-2" x="138.81" y="67.69" width="5" height="15"/><rect class="cls-2" x="155.81" y="82.69" width="8" height="7"/><rect class="cls-2" x="155.81" y="82.69" width="4" height="7"/><rect class="cls-2" x="167.81" y="82.69" width="4" height="7"/><rect class="cls-2" x="152.81" y="95.69" width="20" height="12"/><rect class="cls-2" x="135.23" y="107.28" width="55" height="91.34"/><rect class="cls-2" x="142.27" y="328.12" width="12.34" height="26.45" transform="translate(-193.59 488.2) rotate(-89.73)"/><polygon class="cls-2" points="144.39 335.15 135 335.12 135.19 347.45 144.33 347.5 144.39 335.15"/><rect class="cls-2" x="151.26" y="337.13" width="12.34" height="8.52" transform="translate(-184.67 497.25) rotate(-89.74)"/><rect class="cls-2" x="182.07" y="328.12" width="12.34" height="26.45" transform="matrix(0, -1, 1, 0, -153.97, 528)"/><polygon class="cls-2" points="184.19 335.15 174.79 335.12 174.99 347.45 184.13 347.5 184.19 335.15"/><rect class="cls-2" x="191.06" y="337.13" width="12.34" height="8.51" transform="translate(-145.05 537.05) rotate(-89.74)"/><rect class="cls-2" x="144.62" y="107.62" width="9.19" height="14"/><rect class="cls-2" x="135.42" y="107.62" width="9.19" height="14"/><rect class="cls-2" x="163.31" y="107.62" width="9.19" height="14"/><rect class="cls-2" x="154.12" y="107.62" width="9.19" height="14"/><rect class="cls-2" x="181.03" y="107.62" width="9.19" height="14"/><rect class="cls-2" x="171.84" y="107.62" width="9.19" height="14"/><rect class="cls-2" x="274.42" y="116.28" width="15" height="5"/><rect class="cls-2" x="274.42" y="107.28" width="15" height="4"/><rect class="cls-2" x="143.81" y="55.69" width="39" height="40"/><path class="cls-2" d="M182.31,64.56"/><rect class="cls-2" x="135.23" y="198.62" width="15" height="136"/><rect class="cls-2" x="175.23" y="198.62" width="15" height="136"/><circle class="cls-2" cx="163.62" cy="44.44" r="3.77"/><line class="cls-2" x1="163.61" y1="47.69" x2="163.61" y2="55.69"/><rect class="cls-2" x="190.42" y="107.28" width="99" height="14"/><line class="cls-2" x1="274.42" y1="107.28" x2="274.42" y2="121.28"/><rect class="cls-2" x="36.42" y="116.28" width="15" height="5"/><rect class="cls-2" x="36.42" y="107.28" width="15" height="4"/><rect class="cls-2" x="36.42" y="107.28" width="99" height="14"/><line class="cls-2" x1="51.42" y1="107.28" x2="51.42" y2="121.28"/><path class="cls-3" d="M241.92,107.28"/><line class="cls-2" x1="43.42" y1="149.28" x2="43.42" y2="121.28"/><polyline class="cls-2" points="43.42 107.28 43.42 63.28 14.67 16.03"/><line class="cls-2" x1="43.42" y1="87.53" x2="68.67" y2="74.66"/><line class="cls-2" x1="31.97" y1="44.44" x2="43.92" y2="13.53"/><line class="cls-2" x1="173.96" y1="55.69" x2="192.14" y2="13.28"/><line class="cls-2" x1="183.05" y1="34.49" x2="199.04" y2="29.6"/><path class="cls-2" d="M43.63,14.5C53,14.49,54.49,1.41,54.49,1.41S41.87,5.3,43.63,14.5Z"/><path class="cls-2" d="M191.77,13.51c7,3.57,13.09-5.6,13.09-5.6S194,6,191.77,13.51Z"/><path class="cls-2" d="M58,67.88C60.39,58.83,48.14,54,48.14,54S48.64,67.2,58,67.88Z"/><path class="cls-2" d="M14.69,16.27C14.53,6.9,1.43,5.62,1.43,5.62S5.52,18.17,14.69,16.27Z"/><line class="cls-2" x1="54.49" y1="81.89" x2="60.93" y2="55.69"/><path class="cls-2" d="M186.84,25.48C179,25.31,178,14.33,178,14.33S188.48,17.81,186.84,25.48Z"/><line class="cls-2" x1="245.42" y1="96.28" x2="245.42" y2="107.28"/></g></g></svg>