<svg xmlns="http://www.w3.org/2000/svg" viewBox="0 0 158 151.17"><defs><style>.cls-1{fill:none;stroke:#fff;stroke-miterlimit:10;stroke-width:2px;}</style></defs><title>Fichier 14</title><g id="Calque_2" data-name="Calque 2"><g id="Calque_2-2" data-name="Calque 2"><circle class="cls-1" cx="88.3" cy="30.77" r="3.77"/><circle class="cls-1" cx="109.14" cy="31.22" r="3.77"/><polygon class="cls-1" points="102.83 38.02 94.84 38.02 98.83 30.81 98.83 30.81 102.83 38.02"/><rect class="cls-1" x="91" y="43.02" width="16" height="7"/><rect class="cls-1" x="118" y="28.02" width="5" height="15"/><rect class="cls-1" x="74" y="28.02" width="5" height="15"/><rect class="cls-1" x="91" y="43.02" width="8" height="7"/><rect class="cls-1" x="91" y="43.02" width="4" height="7"/><rect class="cls-1" x="103" y="43.02" width="4" height="7"/><rect class="cls-1" x="79" y="16.02" width="39" height="40"/><rect class="cls-1" x="1" y="119.02" width="39" height="31.15"/><path class="cls-1" d="M117.5,24.88"/><circle class="cls-1" cx="98.8" cy="4.77" r="3.77"/><line class="cls-1" x1="98.8" y1="8.02" x2="98.8" y2="16.02"/><rect class="cls-1" x="6.5" y="109.83" width="9" height="9"/><rect class="cls-1" x="25.5" y="109.83" width="9" height="9"/><rect class="cls-1" x="79" y="56.02" width="39" height="31.15"/><rect class="cls-1" x="44.5" y="78.83" width="9" height="9"/><rect class="cls-1" x="63.5" y="78.83" width="9" height="9"/><rect class="cls-1" x="40" y="119.02" width="39" height="31.15"/><rect class="cls-1" x="79" y="119.02" width="39" height="31.15"/><rect class="cls-1" x="40" y="87.68" width="39" height="31.15"/><rect class="cls-1" x="79" y="87.68" width="39" height="31.15"/><rect class="cls-1" x="118" y="119.02" width="39" height="31.15"/><rect class="cls-1" x="123.5" y="109.83" width="9" height="9"/><rect class="cls-1" x="142.5" y="109.83" width="9" height="9"/></g></g></svg>