<svg xmlns="http://www.w3.org/2000/svg" viewBox="0 0 151.13 241.25"><defs><style>.cls-1,.cls-2{fill:none;stroke:#fff;stroke-width:2px;}.cls-1{stroke-miterlimit:10;}.cls-2{stroke-linejoin:round;}</style></defs><title>Fichier 12</title><g id="Calque_2" data-name="Calque 2"><g id="Calque_2-2" data-name="Calque 2"><circle class="cls-1" cx="25.66" cy="29.64" r="3.79"/><circle class="cls-1" cx="46.61" cy="30.08" r="3.79"/><circle class="cls-1" cx="36" cy="4.79" r="3.79"/><polygon class="cls-1" points="40.26 38.72 32.23 38.72 36.24 31.48 36.24 31.48 40.26 38.72"/><rect class="cls-1" x="28" y="43.72" width="17" height="5"/><line class="cls-1" x1="36.14" y1="8.44" x2="36.14" y2="16.44"/><rect class="cls-1" x="55" y="27.72" width="5" height="15"/><rect class="cls-1" x="11" y="27.72" width="5" height="15"/><rect class="cls-1" x="28" y="43.72" width="9" height="5"/><rect class="cls-1" x="28" y="43.72" width="4" height="5"/><rect class="cls-1" x="41" y="43.72" width="4" height="5"/><rect class="cls-1" x="26" y="55.72" width="20" height="11"/><rect class="cls-1" x="1" y="66.72" width="55" height="79"/><rect class="cls-1" x="63.31" y="220.69" width="12.41" height="26.58" transform="translate(-164.78 302.41) rotate(-89.73)"/><polygon class="cls-1" points="65.44 227.76 56 227.72 56.19 240.12 65.39 240.16 65.44 227.76"/><rect class="cls-1" x="72.35" y="229.74" width="12.41" height="8.56" transform="translate(-155.82 311.5) rotate(-89.74)"/><polygon class="cls-1" points="1 145.72 1 160.72 16.48 160.71 56 160.72 56 227.72 71 227.72 71 160.72 71 145.72 1 145.72"/><rect class="cls-1" x="84.12" y="226.52" width="12.41" height="14.97" transform="translate(-144.1 323.24) rotate(-89.73)"/><rect class="cls-1" x="87.35" y="229.74" width="12.41" height="8.56" transform="translate(-140.89 326.5) rotate(-89.74)"/><polyline class="cls-1" points="71 160.72 71 227.72 86 227.72 86 160.72 86 145.72 16 145.72"/><polygon class="cls-1" points="55.51 130.73 16 130.72 16 66.72 1 66.72 1 130.72 1 145.72 71 145.72 71 130.72 55.51 130.73"/><polyline class="cls-1" points="16 79.72 16 66.72 56 66.72 56 79.72"/><rect class="cls-1" x="56" y="130.72" width="15" height="15"/><rect class="cls-1" x="56" y="140.72" width="15" height="5"/><rect class="cls-1" x="56" y="130.72" width="15" height="5"/><rect class="cls-1" x="16" y="15.72" width="39" height="40"/><path class="cls-1" d="M55,23.72"/><polygon class="cls-2" points="56.15 66.93 78.19 89.51 106 61.72 116.89 50.82 127.44 61.37 78.19 110.62 56.15 88.64 56.15 66.93"/><rect class="cls-1" x="112.94" y="62.4" width="14.93" height="4.97" transform="translate(-10.62 104.14) rotate(-45)"/><rect class="cls-1" x="105.91" y="55.37" width="14.93" height="4.97" transform="translate(-7.71 97.09) rotate(-44.99)"/><line class="cls-2" x1="106.34" y1="61.37" x2="117.19" y2="72.2"/><path class="cls-2" d="M8,34.41s-26.81,1.69,28,76.21"/><path class="cls-2" d="M63.5,35.72s27.33,2.47-27.67,74.9"/><path class="cls-2" d="M35.5,110s33.5,50.11,87-43.64"/><path class="cls-2" d="M124,57.95s2.23-7.73,13-6.73"/><circle class="cls-2" cx="143.06" cy="51.28" r="7.06"/><circle class="cls-2" cx="143.02" cy="51.33" r="3.02"/><rect class="cls-2" x="8" y="31.72" width="3" height="6"/><rect class="cls-2" x="60" y="32.72" width="3" height="6"/><polyline class="cls-1" points="36 66.72 26 74.72 26 66.72"/><polyline class="cls-1" points="36 66.72 46 74.72 46 66.72"/></g></g></svg>