<svg xmlns="http://www.w3.org/2000/svg" viewBox="0 0 328 241"><defs><style>.cls-1,.cls-3,.cls-4{fill:none;stroke:#fff;}.cls-1{stroke-miterlimit:10;}.cls-1,.cls-3{stroke-width:2px;}.cls-2{fill:#fff;}.cls-3,.cls-4{stroke-linecap:round;stroke-linejoin:round;}.cls-4{stroke-width:1.5px;}</style></defs><title>Fichier 6</title><g id="Calque_2" data-name="Calque 2"><g id="Calque_2-2" data-name="Calque 2"><path class="cls-1" d="M200.7,29.92a3.79,3.79,0,1,0-7.58,0"/><path class="cls-1" d="M179.75,30.37a3.79,3.79,0,0,0-7.58,0"/><polyline class="cls-1" points="190.78 38 187.32 31.76 187.32 31.76 183.31 39 191.33 39 190.78 38"/><rect class="cls-1" x="178" y="44" width="17" height="5"/><polyline class="cls-1" points="168 43 163 43 163 28 168 28"/><rect class="cls-1" x="207" y="28" width="5" height="15"/><rect class="cls-1" x="186" y="44" width="9" height="5"/><rect class="cls-1" x="191" y="44" width="4" height="5"/><rect class="cls-1" x="178" y="44" width="4" height="5"/><rect class="cls-1" x="177" y="56" width="20" height="11"/><rect class="cls-1" x="167" y="67" width="55" height="79"/><polygon class="cls-1" points="167.49 131.01 207 131 207 67 222 67 222 131 222 146 152 146 152 131 167.49 131.01"/><rect class="cls-1" x="152" y="131" width="15" height="15"/><rect class="cls-1" x="152" y="141" width="15" height="5"/><rect class="cls-1" x="152" y="131" width="15" height="5"/><polyline class="cls-1" points="152 136.61 117.75 102.36 128.36 91.75 139.3 102.71 167.25 130.64"/><rect class="cls-1" x="120.86" y="94.86" width="15" height="15" transform="translate(-34.79 120.7) rotate(-44.99)"/><rect class="cls-1" x="122.32" y="98.39" width="5" height="15" transform="translate(-38.32 119.24) rotate(-44.99)"/><rect class="cls-1" x="129.39" y="91.32" width="5" height="15" transform="translate(-31.25 122.2) rotate(-45)"/><polyline class="cls-1" points="168 38 168 56 207 56 207 16 168 16 168 31"/><path class="cls-1" d="M167.57,24"/><polygon class="cls-1" points="222 146 152 146 152 146.07 152 146.07 88.73 208.66 99.34 219.27 157.61 161 222 161 222 146"/><polyline class="cls-1" points="167 161 167 228 152 228 152 167"/><rect class="cls-1" x="140" y="228" width="27" height="12"/><rect class="cls-1" x="158" y="228" width="9" height="12"/><rect class="cls-1" x="140" y="228" width="9" height="12"/><rect class="cls-1" x="79.5" y="200.21" width="12" height="27" transform="translate(-126.07 123.05) rotate(-45)"/><rect class="cls-1" x="73.14" y="202.84" width="12" height="9" transform="translate(-123.44 116.7) rotate(-45)"/><polygon class="cls-1" points="92.92 212.65 99.34 219.27 90.8 227.5 84.44 221.13 92.92 212.65"/><polygon class="cls-1" points="180 37 168 37 168 30 184 30 180 37"/><polygon class="cls-1" points="195 37 207 37 207 30 191 30 195 37"/><polyline class="cls-1" points="197 67 197 78 187 68 177 78 177 67"/><rect class="cls-2" x="185" y="76" width="3" height="3"/><rect class="cls-1" x="167" y="131" width="6" height="15"/><polygon class="cls-1" points="138.82 102.21 143.1 106.5 132.49 117.1 128.36 112.66 138.82 102.21"/><polyline class="cls-1" points="115 183 115 161 137 161"/><polyline class="cls-1" points="158 161 327 161 327 228 115 228 115 204"/><polygon class="cls-1" points="122.75 240 115 240 115 228 127 228 122.75 240"/><polygon class="cls-1" points="319.25 240 327 240 327 228 315 228 319.25 240"/><polyline class="cls-1" points="167 94 132 94 131.89 95.29"/><polyline class="cls-1" points="222 161 327 161 327 94 222 94"/><line class="cls-1" x1="132" y1="117" x2="132" y2="161"/><rect class="cls-1" x="240" y="212" width="5" height="5" transform="translate(-80.65 234.34) rotate(-45.01)"/><rect class="cls-1" x="271" y="212" width="5" height="5" transform="translate(-71.56 256.26) rotate(-45.01)"/><rect class="cls-1" x="302" y="212" width="5" height="5" transform="translate(-62.48 278.19) rotate(-45.01)"/><rect class="cls-1" x="178" y="212" width="5" height="5" transform="translate(-98.81 190.49) rotate(-45.01)"/><rect class="cls-1" x="209" y="212" width="5" height="5" transform="translate(-89.73 212.42) rotate(-45.01)"/><rect class="cls-1" x="136" y="212" width="5" height="5" transform="translate(-111.12 160.79) rotate(-45.01)"/><polygon class="cls-1" points="16.29 77.58 19.37 77.5 25.38 81.11 31.38 73 36.67 73 28.41 86.53 38.87 94 38.92 94 44.29 91.93 47.02 86 49.88 86 45.81 94.82 40.28 98.88 42.94 108.24 33.14 124 17.28 124 33.8 107.86 33.8 107.86 16.46 105.91 10.23 98 12.88 98 19.15 102 32.52 102 30.72 94.22 21.6 86.69 23 84.3 16.29 77.58"/><polygon class="cls-3" points="2.96 98 20.81 98 13.79 92.05 2.96 98"/><polygon class="cls-3" points="37.33 86 57.15 86 45.26 80.47 37.33 86"/><polygon class="cls-3" points="25.43 73 44.6 73 35.92 66.64 25.43 73"/><polygon class="cls-4" points="22.79 77.17 16.68 72.55 9.35 77.54 22.79 77.17"/><rect class="cls-1" x="5" y="125" width="40" height="6"/><rect class="cls-1" x="7" y="131" width="36" height="5"/><rect class="cls-1" x="1" y="137" width="81" height="9"/><polygon class="cls-1" points="45 219 45 146 38 146 38 219 23 240 30 240 38 228.8 38 240 45 240 45 228.8 53 240 60 240 45 219"/><rect class="cls-1" x="58" y="117" width="20" height="20"/><polyline class="cls-1" points="76 117 84 117 84 130"/><rect class="cls-1" x="58" y="117" width="20" height="6"/><circle class="cls-1" cx="187.21" cy="4.79" r="3.79"/><line class="cls-1" x1="187" y1="8" x2="187" y2="16"/></g></g></svg>