<svg xmlns="http://www.w3.org/2000/svg" viewBox="0 0 214.92 449.27"><defs><style>.cls-1{fill:none;stroke:#fff;stroke-miterlimit:10;stroke-width:2px;}.cls-2{fill:#fff;}</style></defs><title>Fichier 1</title><g id="Calque_2" data-name="Calque 2"><g id="Calque_2-2" data-name="Calque 2"><rect class="cls-1" x="139.34" y="132.74" width="39" height="40"/><circle class="cls-1" cx="149" cy="146.66" r="3.79"/><circle class="cls-1" cx="169.94" cy="147.11" r="3.79"/><circle class="cls-1" cx="159.69" cy="123.04" r="3.79"/><polygon class="cls-1" points="163.59 155.74 155.57 155.74 159.58 148.5 159.58 148.5 163.59 155.74"/><rect class="cls-1" x="151.34" y="159.74" width="17" height="5"/><line class="cls-1" x1="159.69" y1="126.83" x2="159.58" y2="133.18"/><rect class="cls-1" x="178.34" y="144.74" width="5" height="15"/><rect class="cls-1" x="134.34" y="144.74" width="5" height="15"/><rect class="cls-1" x="151.34" y="159.74" width="9" height="5"/><rect class="cls-1" x="151.34" y="159.74" width="4" height="5"/><rect class="cls-1" x="164.34" y="159.74" width="4" height="5"/><rect class="cls-1" x="149.34" y="172.74" width="20" height="11"/><rect class="cls-1" x="114.34" y="183.74" width="55" height="79"/><polygon class="cls-1" points="169.34 416.74 36.27 416.74 114.68 262.74 169.34 262.74 169.34 416.74"/><polygon class="cls-1" points="131.2 183.74 96.39 100.06 82.48 105.73 114.89 183.74 114.68 183.74 131.2 183.74"/><path class="cls-2" d="M131.2,213.68c3.22,0,3.22-5,0-5s-3.22,5,0,5Z"/><path class="cls-2" d="M158.67,227.86c3.22,0,3.22-5,0-5s-3.22,5,0,5Z"/><path class="cls-2" d="M169.62,262.27H114.68l.38,1.4L170,238l-1.13-.65V263a.75.75,0,0,0,1.5,0v-25.7a.76.76,0,0,0-1.13-.65l-54.93,25.7c-.7.33-.32,1.4.38,1.4h54.93A.75.75,0,0,0,169.62,262.27Z"/><line class="cls-1" x1="36.27" y1="416.3" x2="136.25" y2="295.21"/><line class="cls-1" x1="36.27" y1="416.3" x2="139.49" y2="354.87"/><rect class="cls-1" x="154.34" y="416.74" width="15" height="19"/><rect class="cls-1" x="161.64" y="428.71" width="12.41" height="26.58" transform="translate(-274.93 607.8) rotate(-89.73)"/><rect class="cls-1" x="122.66" y="428.71" width="12.41" height="26.58" transform="translate(-313.73 568.81) rotate(-89.73)"/><rect class="cls-1" x="152.95" y="437.36" width="12.4" height="9.19" transform="translate(-283.55 599.04) rotate(-89.73)"/><rect class="cls-1" x="170.69" y="437.76" width="12.41" height="8.56" transform="translate(-265.96 616.91) rotate(-89.74)"/><rect class="cls-1" x="115.34" y="416.74" width="15" height="19"/><rect class="cls-1" x="113.96" y="437.36" width="12.4" height="9.19" transform="translate(-322.35 560.06) rotate(-89.73)"/><rect class="cls-1" x="131.7" y="437.76" width="12.41" height="8.56" transform="translate(-304.77 577.92) rotate(-89.74)"/><rect class="cls-1" x="79.55" y="92.53" width="7.04" height="12.41" transform="translate(-32.26 40.88) rotate(-23.28)"/><rect class="cls-1" x="85.38" y="86.64" width="6.75" height="15.71" transform="translate(-30.12 42.77) rotate(-23.28)"/><rect class="cls-1" x="79.55" y="92.53" width="7.04" height="12.41" transform="translate(-32.27 40.89) rotate(-23.29)"/><rect class="cls-1" x="91.14" y="81.66" width="6.56" height="18.14" transform="translate(-28.19 44.75) rotate(-23.3)"/><polyline class="cls-1" points="169.68 224.66 194.63 281.98 208.53 276.12 169.01 183.74 169.34 183.74"/><rect class="cls-1" x="198.86" y="279.86" width="6.75" height="15.71" transform="translate(-97.25 103.36) rotate(-23.28)"/><rect class="cls-1" x="204.39" y="277.28" width="7.04" height="12.41" transform="translate(-95.14 105.29) rotate(-23.29)"/><rect class="cls-1" x="193.29" y="282.42" width="6.56" height="18.14" transform="translate(-99.27 101.53) rotate(-23.3)"/><path class="cls-2" d="M96.2,85.49l69.53-68.08,5.84-5.72c.52-.51,2.7-2.23,1.88-2.19s1,1.8,1.5,2.07c.91.53.34,1.22.85-.12a3.64,3.64,0,0,1-1,.94c-1.68,1.16-3.14,3.08-4.6,4.5L129.59,56.7,96.84,88.76c-.69.68.37,1.74,1.06,1.06L167.13,22l9.78-9.58a.76.76,0,0,0,0-1.06l-3-3.06a.76.76,0,0,0-1.06,0L104.73,75l-9.59,9.39c-.69.68.37,1.74,1.06,1.06Z"/><path class="cls-2" d="M81.23,104.05,11.42,172.4l-6,5.87c-.53.51-1.13,1-1.6,1.57-.79.93-.57,0,.29.43-.8-.36-1.59-1.68-2.24-2.28s-.39.08-.52.38a3.66,3.66,0,0,1,.91-.89c1.74-1.2,3.25-3.18,4.75-4.65L47.6,133.07l32.87-32.18c.69-.68-.37-1.74-1.06-1.06L10.15,167.64.21,177.37a.76.76,0,0,0,0,1.06l3,3.06a.76.76,0,0,0,1.06,0l68.39-67,9.63-9.43c.69-.68-.37-1.74-1.06-1.06Z"/><path class="cls-2" d="M153.37,46.46,151.11,41c-.24-.57-1.18-2-1.13-2.71,0,.48-.22.84.24.14,2-3.07,5.9-5.75,8.53-8.31l18.15-17.67-1.25-.33,23,59.25c.35.89,1.8.5,1.45-.4l-23-59.25a.76.76,0,0,0-1.25-.33L148.68,37.86a.73.73,0,0,0-.19.73l3.44,8.27c.37.88,1.82.49,1.45-.4Z"/><path class="cls-2" d="M111.58,75.51l53.35,29.72a.77.77,0,0,0,.91-.12L200,71.71a.76.76,0,0,0-.15-1.18L145.29,42c-.85-.45-1.61.85-.76,1.3l30.33,15.9L193.71,69c1.28.67,3.24,2.25,4.68,2.46,1.65.23-1.18.72.48-.82a9.38,9.38,0,0,1-1.15,1.13c-1.92,1.21-3.64,3.57-5.26,5.15L184,85.27l-15.36,15c-1.09,1.07-2.32,2.8-3.65,3.58-.63.37,1.3.19.44-.11a12.6,12.6,0,0,1-1.81-1l-16-8.92L112.33,74.22c-.84-.47-1.6.82-.76,1.3Z"/><path class="cls-2" d="M141.3,39.86,75.11,5.06l-9.45-5c-.85-.45-1.61.85-.76,1.3l66.19,34.8,9.45,5c.85.45,1.61-.85.76-1.3Z"/><path class="cls-2" d="M64.56.94,66.9,15.57l1.46,9.12A16.84,16.84,0,0,1,68.73,27c0,.23,1.06-.74,0-.46C58.7,29.1,48.82,32.18,38.9,35a.76.76,0,0,0-.18,1.37l69,37c.85.46,1.61-.84.76-1.3l-69-37-.18,1.37,30.4-8.62a.77.77,0,0,0,.52-.92L66,.54c-.15-1-1.6-.55-1.45.4Z"/><path class="cls-2" d="M169.62,262.27H114.68l.2,1.47,54.93-13.19a.76.76,0,0,0,.55-.72v-12.5a.75.75,0,0,0-1.5,0V263a.75.75,0,0,0,1.5,0v-25.7a.75.75,0,0,0-1.5,0v9.55q0,1.06,0,2.12c0,1-.18.63.49.13a4.21,4.21,0,0,1-1.31.32c-5.74.45-11.92,2.86-17.51,4.2l-36.06,8.66a.75.75,0,0,0,.2,1.47h54.93A.75.75,0,0,0,169.62,262.27Z"/></g></g></svg>