<svg xmlns="http://www.w3.org/2000/svg" viewBox="0 0 241.7 132.27"><defs><style>.cls-1{fill:none;stroke:#fff;stroke-miterlimit:10;stroke-width:2px;}</style></defs><title>Fichier 5</title><g id="Calque_2" data-name="Calque 2"><g id="Calque_2-2" data-name="Calque 2"><polygon class="cls-1" points="214.5 113.39 174.99 113.38 174.99 49.43 127.98 1.43 80.53 49.43 80.53 49.43 80.54 64.91 80.53 104.43 13.98 104.43 13.98 119.43 80.53 119.43 95.98 119.43 95.98 55.43 159.99 55.43 159.99 104.42 159.99 113.38 159.99 128.43 229.99 128.43 229.99 113.38 214.5 113.39"/><circle class="cls-1" cx="211.61" cy="64.06" r="3.79"/><circle class="cls-1" cx="211.16" cy="85.01" r="3.79"/><polygon class="cls-1" points="202.99 78.66 202.99 70.64 210.22 74.65 210.22 74.65 202.99 78.66"/><rect class="cls-1" x="192.99" y="66.43" width="5" height="17"/><rect class="cls-1" x="198.99" y="93.43" width="15" height="5"/><rect class="cls-1" x="198.99" y="49.43" width="15" height="5"/><rect class="cls-1" x="192.99" y="66.43" width="5" height="9"/><rect class="cls-1" x="192.99" y="66.43" width="5" height="4"/><rect class="cls-1" x="192.99" y="79.43" width="5" height="4"/><rect class="cls-1" x="174.99" y="64.43" width="11" height="20"/><path class="cls-1" d="M175,104.43"/><line class="cls-1" x1="95.99" y1="104.43" x2="95.99" y2="55.43"/><rect class="cls-1" x="-6.02" y="111.71" width="26.58" height="12.41" transform="translate(-110.68 124.65) rotate(-89.74)"/><polygon class="cls-1" points="13.49 113.84 13.53 104.4 1.13 104.6 1.09 113.79 13.49 113.84"/><rect class="cls-1" x="2.95" y="120.75" width="8.56" height="12.4" transform="translate(-119.76 133.62) rotate(-89.75)"/><polyline class="cls-1" points="95.98 119.43 80.53 119.43 13.98 119.43 13.98 104.43 80.53 104.43 80.54 64.91 80.53 49.43 174.99 49.43"/><polyline class="cls-1" points="159.99 104.43 159.99 113.38 159.99 128.43 229.99 128.43 229.99 113.38 214.5 113.39 174.99 113.38"/><rect class="cls-1" x="214.99" y="113.43" width="15" height="15"/><rect class="cls-1" x="214.99" y="123.43" width="15" height="5"/><rect class="cls-1" x="214.99" y="113.43" width="15" height="5"/><rect class="cls-1" x="185.99" y="54.43" width="40" height="39"/><path class="cls-1" d="M217.53,93.4"/><circle class="cls-1" cx="236.91" cy="73.93" r="3.79"/><line class="cls-1" x1="233.99" y1="73.43" x2="225.99" y2="73.43"/><line class="cls-1" x1="95.99" y1="104.43" x2="159.99" y2="104.43"/><polyline class="cls-1" points="150.99 24.43 150.99 11.43 160.99 11.43 160.99 35.43"/><rect class="cls-1" x="150.99" y="11.43" width="10" height="5"/><rect class="cls-1" x="107.99" y="65.43" width="12" height="18"/><line class="cls-1" x1="113.99" y1="65.43" x2="113.99" y2="83.43"/><line class="cls-1" x1="107.99" y1="74.43" x2="119.99" y2="74.43"/><rect class="cls-1" x="134.99" y="65.43" width="12" height="18"/><line class="cls-1" x1="140.99" y1="65.43" x2="140.99" y2="83.43"/><line class="cls-1" x1="134.99" y1="74.43" x2="146.99" y2="74.43"/><rect class="cls-1" x="80.99" y="49.43" width="94" height="6"/></g></g></svg>