<svg xmlns="http://www.w3.org/2000/svg" viewBox="0 0 332.25 312.96"><defs><style>.cls-1,.cls-2{fill:none;stroke:#fff;stroke-width:2px;}.cls-1{stroke-miterlimit:10;}.cls-2{stroke-linejoin:round;}</style></defs><title>Fichier 7</title><g id="Calque_2" data-name="Calque 2"><g id="Calque_2-2" data-name="Calque 2"><circle class="cls-1" cx="25.55" cy="34.76" r="3.77"/><circle class="cls-1" cx="46.39" cy="35.2" r="3.77"/><polygon class="cls-1" points="40.08 42 32.09 42 36.08 34.8 36.08 34.8 40.08 42"/><rect class="cls-1" x="28.25" y="47" width="16" height="7"/><rect class="cls-1" x="55.25" y="32" width="5" height="15"/><rect class="cls-1" x="11.25" y="32" width="5" height="15"/><rect class="cls-1" x="28.25" y="47" width="8" height="7"/><rect class="cls-1" x="28.25" y="47" width="4" height="7"/><rect class="cls-1" x="40.25" y="47" width="4" height="7"/><rect class="cls-1" x="25.25" y="60" width="20" height="12"/><rect class="cls-1" x="1.25" y="72" width="55" height="91"/><rect class="cls-1" x="8.29" y="292.5" width="12.34" height="26.45" transform="translate(-291.33 318.77) rotate(-89.73)"/><polygon class="cls-1" points="10.41 299.53 1.02 299.5 1.21 311.83 10.35 311.88 10.41 299.53"/><rect class="cls-1" x="17.28" y="301.51" width="12.34" height="8.52" transform="translate(-282.41 327.82) rotate(-89.74)"/><rect class="cls-1" x="48.09" y="292.5" width="12.34" height="26.45" transform="translate(-251.71 358.56) rotate(-89.73)"/><polygon class="cls-1" points="50.21 299.53 40.81 299.5 41.01 311.83 50.15 311.88 50.21 299.53"/><rect class="cls-1" x="57.08" y="301.51" width="12.34" height="8.51" transform="translate(-242.8 367.61) rotate(-89.74)"/><polygon class="cls-1" points="55.7 135.34 16.25 135.33 16.25 72 1.25 72 1.25 135.33 1.25 150 71.25 150 71.25 135.33 55.7 135.34"/><rect class="cls-1" x="16.25" y="72" width="40" height="14"/><rect class="cls-1" x="35.25" y="72" width="21" height="14"/><rect class="cls-1" x="35.25" y="72" width="10" height="14"/><rect class="cls-1" x="16.25" y="72" width="19" height="14"/><rect class="cls-1" x="16.25" y="72" width="9" height="14"/><rect class="cls-1" x="56.25" y="136" width="15" height="14"/><rect class="cls-1" x="56.25" y="145" width="15" height="5"/><rect class="cls-1" x="56.25" y="136" width="15" height="4"/><polygon class="cls-2" points="55.87 93.67 75.22 113.01 85.77 123.57 135.02 74.32 124.46 63.77 113.57 74.67 85.77 102.46 55.74 71.65 55.87 93.67"/><rect class="cls-1" x="117" y="66.86" width="14.92" height="14.92" transform="translate(-16.1 109.77) rotate(-45)"/><rect class="cls-1" x="120.52" y="75.35" width="14.93" height="4.97" transform="translate(-17.55 113.29) rotate(-45)"/><rect class="cls-1" x="113.48" y="68.31" width="14.93" height="4.97" transform="translate(-14.65 106.24) rotate(-44.99)"/><rect class="cls-1" x="16.25" y="20" width="39" height="40"/><path class="cls-1" d="M54.74,28.87"/><rect class="cls-1" x="1.25" y="163" width="15" height="136"/><rect class="cls-1" x="41.25" y="163" width="15" height="136"/><circle class="cls-1" cx="36.05" cy="9.75" r="3.77"/><line class="cls-1" x1="35.25" y1="12" x2="35.25" y2="20"/><polyline class="cls-1" points="93.25 95 93.25 1 320.25 1 320.25 150 93.25 150 93.25 117"/><rect class="cls-1" x="86.25" y="150" width="245" height="12"/><polyline class="cls-1" points="124.39 63.74 128.59 54.79 132.19 56.48 127.4 66.7"/><path class="cls-1" d="M132,56.06a43.45,43.45,0,0,1,43.45-43.45"/><ellipse class="cls-1" cx="225.06" cy="54.25" rx="13.75" ry="15.75"/><ellipse class="cls-1" cx="173.06" cy="58.25" rx="13.75" ry="15.75" transform="translate(-4.82 16.99) rotate(-5.54)"/><line class="cls-1" x1="199.12" y1="73.23" x2="203.38" y2="92.77"/><line class="cls-1" x1="191.48" y1="85.13" x2="211.02" y2="80.87"/><line class="cls-1" x1="189.61" y1="103.42" x2="216.34" y2="105.99"/><line class="cls-1" x1="188.94" y1="110.39" x2="215.67" y2="112.96"/></g></g></svg>