<svg xmlns="http://www.w3.org/2000/svg" viewBox="0 0 101.03 86.87"><defs><style>.cls-1{fill:none;stroke-linecap:square;stroke-linejoin:round;stroke-width:2px;}.cls-1,.cls-3{stroke:#fff;}.cls-2,.cls-3{fill:#fff;}.cls-3{stroke-miterlimit:10;stroke-width:2.35px;}</style></defs><title>Fichier 7</title><g id="Calque_2" data-name="Calque 2"><g id="Calque_1-2" data-name="Calque 1"><polygon class="cls-1" points="100.03 1 100.03 65.82 19.16 65.82 1 85.87 1 67.18 1 1 100.03 1"/><path class="cls-2" d="M38.47,27c0-10.11,6.66-12.57,12.57-12.57S63.7,17.87,63.7,27c0,6.38-3.8,7.93-6.8,8.82-4.88,1.5-5.63,2.39-5.63,8.35H48.88c0-6.43,1.59-8.82,7.41-10.5,2.67-.8,5-2,5-6.66,0-9.16-5.77-10.36-10.27-10.36-4.31,0-10.13,2.21-10.13,10.32Z"/><path class="cls-3" d="M52.11,55a1.83,1.83,0,0,1-3.66,0A1.83,1.83,0,0,1,52.11,55Z"/></g></g></svg>