<svg xmlns="http://www.w3.org/2000/svg" viewBox="0 0 101.03 86.87"><defs><style>.cls-1{fill:none;stroke:#fff;stroke-linecap:square;stroke-linejoin:round;stroke-width:2px;}.cls-2{fill:#fff;}</style></defs><title>Fichier 10</title><g id="Calque_2" data-name="Calque 2"><g id="Calque_1-2" data-name="Calque 1"><polygon class="cls-1" points="100.03 1 100.03 65.82 19.16 65.82 1 85.87 1 67.18 1 1 100.03 1"/><path class="cls-2" d="M23.71,26.8V20.44H14.79V26.8H13.71v-14h1.08v6.66h8.92V12.8h1.08v14Z"/><path class="cls-2" d="M38.81,26.8l-1.54-3.44H28.91L27.39,26.8H26.23l6.28-14h1.18L40,26.8Zm-2-4.44-3.76-8.52-3.76,8.52Z"/><path class="cls-2" d="M42.61,26.1a.79.79,0,0,1-1.58,0A.79.79,0,0,1,42.61,26.1Zm-.32-13.3V24h-1V12.8Z"/><path class="cls-2" d="M45.66,52.44V44.58h-11v7.86H33.3V35.14h1.33v8.23h11V35.14H47V52.44Z"/><path class="cls-2" d="M64.32,52.44l-1.9-4.25H52.09l-1.88,4.25H48.77l7.76-17.31H58l7.76,17.31ZM61.9,47,57.25,36.42,52.6,47Z"/><path class="cls-2" d="M69,51.58a1,1,0,0,1-2,0A1,1,0,0,1,69,51.58Zm-.4-16.44V49H67.36V35.14Z"/><path class="cls-2" d="M74.2,26V20.37H66.26V26h-1V13.57h1V19.5H74.2V13.57h1V26Z"/><path class="cls-2" d="M87.64,26,86.27,23H78.83L77.47,26h-1L82,13.57h1.05L88.67,26Zm-1.74-4L82.55,14.5,79.2,22.08Z"/><path class="cls-2" d="M91,25.41a.7.7,0,0,1-1.41,0A.7.7,0,0,1,91,25.41Zm-.28-11.84v10h-.91v-10Z"/></g></g></svg>