<svg xmlns="http://www.w3.org/2000/svg" viewBox="0 0 175.29 313.25"><defs><style>.cls-1,.cls-2{fill:none;stroke:#fff;stroke-width:2px;}.cls-1{stroke-linejoin:round;}.cls-2{stroke-miterlimit:10;}</style></defs><title>Fichier 13</title><g id="Calque_2" data-name="Calque 2"><g id="Calque_2-2" data-name="Calque 2"><rect class="cls-1" x="165.94" y="78.01" width="6" height="9.05" transform="translate(-7.51 147.47) rotate(-46.24)"/><rect class="cls-1" x="135.93" y="59.43" width="8" height="10" transform="translate(-3.39 120.91) rotate(-46.23)"/><rect class="cls-1" x="143.57" y="53.6" width="6" height="15" transform="translate(1.06 124.7) rotate(-46.24)"/><rect class="cls-1" x="145.61" y="49.32" width="8" height="10" transform="translate(6.89 124.79) rotate(-46.23)"/><circle class="cls-2" cx="60.99" cy="35.05" r="3.77"/><circle class="cls-2" cx="81.83" cy="35.49" r="3.77"/><polygon class="cls-2" points="75.51 42.29 67.53 42.29 71.52 35.08 71.52 35.08 75.51 42.29"/><rect class="cls-2" x="63.68" y="47.29" width="16" height="7"/><rect class="cls-2" x="63.68" y="47.29" width="8" height="7"/><rect class="cls-2" x="63.68" y="47.29" width="4" height="7"/><rect class="cls-2" x="75.68" y="47.29" width="4" height="7"/><rect class="cls-2" x="60.68" y="60.29" width="20" height="12"/><polygon class="cls-2" points="85.94 88.91 55.44 88.91 60.91 72.13 80.93 72.13 85.94 88.91"/><rect class="cls-2" x="43.72" y="292.79" width="12.34" height="26.45" transform="translate(-256.34 354.49) rotate(-89.73)"/><polygon class="cls-2" points="45.85 299.82 36.45 299.79 36.64 312.12 45.79 312.16 45.85 299.82"/><rect class="cls-2" x="52.72" y="301.8" width="12.34" height="8.52" transform="matrix(0, -1, 1, 0, -247.43, 363.54)"/><rect class="cls-2" x="83.52" y="292.79" width="12.34" height="26.45" transform="matrix(0, -1, 1, 0, -216.73, 394.29)"/><polygon class="cls-2" points="85.65 299.82 76.25 299.79 76.44 312.12 85.59 312.16 85.65 299.82"/><rect class="cls-2" x="92.52" y="301.8" width="12.34" height="8.51" transform="translate(-207.81 403.34) rotate(-89.74)"/><polyline class="cls-2" points="36.69 72.29 36.69 135.62 36.69 150.29 106.69 150.29 106.69 135.62 91.14 135.62 51.69 135.62 51.69 78.81"/><rect class="cls-2" x="91.68" y="136.29" width="15" height="14"/><rect class="cls-2" x="91.68" y="145.29" width="15" height="5"/><rect class="cls-2" x="91.68" y="136.29" width="15" height="4"/><polyline class="cls-1" points="92.6 80.52 95.07 94.96 110.65 113.3 121.2 123.86 170.45 74.61 159.9 64.05 149.01 74.95 121.2 102.75 99.16 80.14"/><rect class="cls-2" x="152.44" y="67.14" width="14.92" height="14.92" transform="translate(-5.92 134.91) rotate(-45)"/><rect class="cls-2" x="155.95" y="75.64" width="14.93" height="4.97" transform="translate(-7.38 138.43) rotate(-45)"/><rect class="cls-2" x="148.92" y="68.6" width="14.93" height="4.97" transform="translate(-4.47 131.37) rotate(-44.99)"/><polyline class="cls-2" points="51.69 58.57 51.69 60.29 90.69 60.29 90.69 59.43"/><line class="cls-2" x1="90.68" y1="42.6" x2="90.68" y2="47.05"/><polyline class="cls-2" points="51.69 48.01 51.69 40.54 51.69 36.29 51.69 20.29 90.69 20.29 90.69 35.98"/><path class="cls-2" d="M90.18,29.16"/><rect class="cls-2" x="36.68" y="279.29" width="15" height="20"/><rect class="cls-2" x="76.68" y="279.29" width="15" height="20"/><circle class="cls-2" cx="70.68" cy="4.77" r="3.77"/><line class="cls-2" x1="70.68" y1="8.54" x2="70.68" y2="20.29"/><line class="cls-2" x1="70.68" y1="72.29" x2="70.68" y2="89.29"/><polygon class="cls-2" points="82.69 98.7 58.19 98.7 60.91 89.13 80.69 89.13 82.69 98.7"/><polyline class="cls-2" points="70.69 89.29 70.69 99.29 71.19 135.62"/><polyline class="cls-2" points="70.69 150.29 70.69 178.13 71.19 279.29"/><polyline class="cls-2" points="36.44 72.29 1.19 279.29 63.69 279.29"/><line class="cls-2" x1="86.68" y1="72.29" x2="55.68" y2="72.29"/><line class="cls-2" x1="102.05" y1="135.62" x2="92.51" y2="80.01"/><polyline class="cls-2" points="63.69 279.29 126.69 279.29 104.56 150.29"/><circle class="cls-2" cx="45.69" cy="39.29" r="6"/><circle class="cls-2" cx="45.19" cy="28.79" r="4.5"/><circle class="cls-2" cx="45.69" cy="53.29" r="8"/><circle class="cls-2" cx="46" cy="70.98" r="9.69"/><circle class="cls-2" cx="95.69" cy="39.29" r="6"/><circle class="cls-2" cx="95.19" cy="28.79" r="4.5"/><circle class="cls-2" cx="95.69" cy="53.29" r="8"/><path class="cls-2" d="M105.69,71A9.69,9.69,0,0,1,86.4,72.31,9.81,9.81,0,0,1,86.31,71a9.69,9.69,0,0,1,19.38,0Z"/><path class="cls-2" d="M45.19,23.37a12.84,12.84,0,0,1,25.31-3"/><path class="cls-2" d="M71.28,19.24a12.9,12.9,0,0,1,25.4,3.14v1.92"/><path class="cls-2" d="M51.68,34.53"/><rect class="cls-1" x="148.63" y="61.44" width="6" height="9.01" transform="translate(-0.88 129.83) rotate(-46.23)"/></g></g></svg>