<svg xmlns="http://www.w3.org/2000/svg" viewBox="0 0 309 310"><defs><style>.cls-1,.cls-2{fill:none;stroke:#fff;stroke-width:2px;}.cls-1{stroke-miterlimit:10;}.cls-2{stroke-linejoin:round;}</style></defs><title>Fichier 2</title><g id="Calque_2" data-name="Calque 2"><g id="Calque_2-2" data-name="Calque 2"><circle class="cls-1" cx="101.66" cy="29.92" r="3.79"/><circle class="cls-1" cx="122.61" cy="30.37" r="3.79"/><polygon class="cls-1" points="116.26 39 108.23 39 112.25 31.76 112.25 31.76 116.26 39"/><rect class="cls-1" x="131" y="28" width="5" height="15"/><rect class="cls-1" x="87" y="28" width="5" height="15"/><rect class="cls-1" x="102" y="56" width="20" height="11"/><rect class="cls-1" x="91.31" y="288.97" width="12.41" height="26.58" transform="translate(-205.19 398.37) rotate(-89.73)"/><polygon class="cls-1" points="93.44 296.04 84 296 84.19 308.4 93.39 308.44 93.44 296.04"/><rect class="cls-1" x="100.35" y="298.02" width="12.41" height="8.56" transform="translate(-196.23 407.47) rotate(-89.74)"/><rect class="cls-1" x="131.31" y="288.97" width="12.41" height="26.58" transform="translate(-165.38 438.37) rotate(-89.73)"/><polygon class="cls-1" points="133.44 296.04 124 296 124.19 308.4 133.38 308.44 133.44 296.04"/><rect class="cls-1" x="140.35" y="298.02" width="12.41" height="8.56" transform="translate(-156.41 447.47) rotate(-89.74)"/><rect class="cls-1" x="202" y="65" width="15" height="15"/><rect class="cls-1" x="202" y="65" width="15" height="5"/><rect class="cls-1" x="202" y="75" width="15" height="5"/><polyline class="cls-1" points="202 65 169.18 97.97 139 67 84 67 53.82 97.97 21 65"/><polyline class="cls-1" points="139 159 139 89 158.58 108.57 169.18 119.18 208.01 80"/><polyline class="cls-1" points="14.99 80 53.82 119.18 64.42 108.57 84 89 84 159"/><rect class="cls-1" x="6" y="65" width="15" height="15"/><rect class="cls-1" x="6" y="65" width="15" height="5"/><rect class="cls-1" x="6" y="75" width="15" height="5"/><rect class="cls-1" x="92" y="16" width="39" height="40"/><path class="cls-1" d="M131,24"/><rect class="cls-1" x="84" y="225" width="15" height="71"/><rect class="cls-1" x="124" y="225" width="15" height="71"/><circle class="cls-1" cx="112.21" cy="4.79" r="3.79"/><line class="cls-1" x1="112" y1="8" x2="112" y2="16"/><line class="cls-1" x1="84" y1="159" x2="84" y2="67"/><line class="cls-1" x1="139" y1="67" x2="139" y2="159"/><polyline class="cls-1" points="84 67 84 95 84 108 84 225 139 225 139 108 139 95 139 67"/><polyline class="cls-1" points="128 67 128 95 95 95 95 67"/><line class="cls-1" x1="84" y1="138" x2="105" y2="138"/><line class="cls-1" x1="121" y1="138" x2="139" y2="138"/><rect class="cls-1" x="104.57" y="134.31" width="6.38" height="6.38" transform="translate(-65.66 116.46) rotate(-45)"/><rect class="cls-1" x="113.57" y="134.31" width="6.38" height="6.38" transform="translate(-63.03 122.83) rotate(-45)"/><polyline class="cls-2" points="106 179.75 112.25 137.5 122 171.5"/><polygon class="cls-1" points="210 58 198 40 222 40 210 58"/><line class="cls-1" x1="210" y1="87" x2="210" y2="80"/><polygon class="cls-1" points="217 92 204 92 210 86.83 210 86.83 217 92"/><line class="cls-1" x1="210" y1="58" x2="210" y2="65"/><rect class="cls-1" x="1" y="103" width="17" height="14"/><polygon class="cls-1" points="13 83.91 13 83.91 13 80 6 80 6 83.91 6 83.91 1 93.45 1 146 18 146 18 93.45 13 83.91"/><rect class="cls-1" x="247" y="114" width="17" height="14"/><polygon class="cls-1" points="259 94.91 259 94.91 259 91 252 91 252 94.91 252 94.91 247 104.45 247 157 264 157 264 104.45 259 94.91"/><polyline class="cls-1" points="110.21 43.56 101.14 45.44 98.38 43"/><polyline class="cls-1" points="113.61 43.56 122.68 45.44 125.44 43"/><polyline class="cls-1" points="120 44 120 49 105 49 105 44"/><polygon class="cls-1" points="273 157 191 157 186 233 191.5 308.52 273 308.97 278 233 273 157"/><line class="cls-1" x1="247" y1="298" x2="247" y2="239"/><line class="cls-1" x1="217" y1="239" x2="217" y2="298"/><polygon class="cls-1" points="273.66 167 190.34 167 191 157 273 157 273.66 167"/><polygon class="cls-1" points="273.05 308.26 191.46 308 190.73 298 273.72 298 273.05 308.26"/><polygon class="cls-1" points="186.53 225 277 225 278 231.49 277.6 239 186.44 239 186 232.79 186.53 225"/><line class="cls-1" x1="247" y1="225" x2="247" y2="167"/><line class="cls-1" x1="217" y1="167" x2="217" y2="225"/><rect class="cls-1" x="252" y="81" width="7" height="10"/><rect class="cls-1" x="291" y="266" width="17" height="14"/><polygon class="cls-1" points="303 246.91 303 246.91 303 243 296 243 296 246.91 296 246.91 291 256.45 291 309 308 309 308 256.45 303 246.91"/><rect class="cls-1" x="296" y="233" width="7" height="10"/><polygon class="cls-1" points="210 58 202.6 46.9 217.36 46.96 210 58"/><rect class="cls-1" x="95" y="67" width="33" height="13"/><rect class="cls-1" x="112" y="67" width="16" height="13"/><rect class="cls-1" x="112" y="67" width="10" height="13"/><rect class="cls-1" x="95" y="67" width="17" height="13"/><rect class="cls-1" x="95" y="67" width="7" height="13"/></g></g></svg>