<svg xmlns="http://www.w3.org/2000/svg" viewBox="0 0 165.3 240.02"><defs><style>.cls-1{fill:none;stroke:#fff;stroke-miterlimit:10;stroke-width:2px;}.cls-2{fill:#fff;}</style></defs><title>Fichier 10</title><g id="Calque_2" data-name="Calque 2"><g id="Calque_2-2" data-name="Calque 2"><rect class="cls-1" x="48.3" y="14.49" width="39" height="40"/><circle class="cls-1" cx="66.61" cy="4.79" r="3.79"/><polygon class="cls-1" points="62.71 37.49 70.73 37.49 66.72 30.25 66.72 30.25 62.71 37.49"/><rect class="cls-1" x="58.3" y="41.49" width="17" height="5"/><line class="cls-1" x1="66.61" y1="8.58" x2="66.72" y2="14.93"/><rect class="cls-1" x="43.3" y="26.49" width="5" height="15"/><rect class="cls-1" x="87.3" y="26.49" width="5" height="15"/><rect class="cls-1" x="66.3" y="41.49" width="9" height="5"/><rect class="cls-1" x="71.3" y="41.49" width="4" height="5"/><rect class="cls-1" x="58.3" y="41.49" width="4" height="5"/><rect class="cls-1" x="57.3" y="54.49" width="20" height="11"/><polyline class="cls-1" points="47.3 144.49 102.3 144.49 102.3 65.49 47.3 65.49 47.3 100.38"/><rect class="cls-1" x="20.17" y="226.54" width="26.58" height="12.41" transform="translate(-1.08 0.16) rotate(-0.27)"/><polygon class="cls-1" points="37.52 226.53 46.97 226.49 46.77 238.89 37.58 238.93 37.52 226.53"/><rect class="cls-1" x="20.13" y="226.59" width="8.56" height="12.41" transform="matrix(1, 0, 0, 1, -1.06, 0.11)"/><rect class="cls-1" x="151.83" y="211.38" width="12.41" height="26.24" transform="translate(-1.04 0.74) rotate(-0.27)"/><rect class="cls-1" x="151.79" y="211.41" width="12.41" height="8.83" transform="translate(-1 0.74) rotate(-0.27)"/><rect class="cls-1" x="151.87" y="229.09" width="12.41" height="8.56" transform="translate(-1.06 0.72) rotate(-0.26)"/><polygon class="cls-1" points="102.3 144.49 102.3 159.49 82.89 211.49 152.3 211.41 152.3 226.49 76.97 226.49 61.97 226.49 86.65 159.48 47.3 159.49 47.3 226.49 32.3 226.49 32.3 159.49 32.3 144.49 102.3 144.49"/><polyline class="cls-1" points="102.13 159.48 81.97 159.49 47.3 159.49"/><polygon class="cls-1" points="47.78 129.5 87.3 129.49 87.3 65.49 102.3 65.49 102.3 129.49 102.3 144.49 32.3 144.49 32.3 129.49 47.78 129.5"/><rect class="cls-1" x="47.3" y="65.49" width="40" height="13"/><rect class="cls-1" x="47.3" y="65.49" width="20" height="13"/><rect class="cls-1" x="57.3" y="65.49" width="10" height="13"/><rect class="cls-1" x="67.3" y="65.49" width="20" height="13"/><rect class="cls-1" x="77.3" y="65.49" width="10" height="13"/><rect class="cls-1" x="32.3" y="129.49" width="15" height="15"/><rect class="cls-1" x="32.3" y="139.49" width="15" height="5"/><rect class="cls-1" x="32.3" y="129.49" width="15" height="5"/><path class="cls-1" d="M32.3,138.48a25,25,0,0,1-16.24-8.16"/><path class="cls-1" d="M17.93,104.08a26,26,0,0,1,17.42-6.41c13.24,0,24,9.17,24,20.49a18.36,18.36,0,0,1-4,11.34"/><polygon class="cls-1" points="18.32 143.44 25.32 143.44 25.32 136.95 18.32 132.96 18.32 143.44"/><circle class="cls-1" cx="15.08" cy="117.06" r="13.3"/><polyline class="cls-1" points="3.73 110.58 1.56 103.31 8.15 106.07"/><polyline class="cls-1" points="25.45 108.74 27.33 102.43 20.75 105.2"/><ellipse class="cls-1" cx="14.07" cy="120.44" rx="5.16" ry="4.76"/><path class="cls-2" d="M12,121a1.13,1.13,0,0,0,0-2.25A1.13,1.13,0,0,0,12,121Z"/><path class="cls-2" d="M15.52,121a1.13,1.13,0,0,0,0-2.25,1.13,1.13,0,0,0,0,2.25Z"/><path class="cls-2" d="M19.88,113.17a1.13,1.13,0,0,0,0-2.25,1.13,1.13,0,0,0,0,2.25Z"/><path class="cls-2" d="M8.54,113.17a1.13,1.13,0,0,0,0-2.25,1.13,1.13,0,0,0,0,2.25Z"/><line class="cls-1" x1="33.32" y1="104.44" x2="41.32" y2="104.44"/><polyline class="cls-1" points="32.32 97.44 32.32 65.44 47.32 65.44 47.32 100.44"/><line class="cls-1" x1="53.23" y1="26.49" x2="60.3" y2="30.25"/><line class="cls-1" x1="81.3" y1="26.49" x2="74.23" y2="30.25"/></g></g></svg>