<svg xmlns="http://www.w3.org/2000/svg" viewBox="0 0 209.52 433.58"><defs><style>.cls-1{fill:none;stroke:#fff;stroke-miterlimit:10;stroke-width:2px;}</style></defs><title>Fichier 9</title><g id="Calque_2" data-name="Calque 2"><g id="Calque_2-2" data-name="Calque 2"><circle class="cls-1" cx="100.68" cy="153.38" r="3.77"/><polygon class="cls-1" points="115.2 159.62 107.22 159.62 111.21 152.41 111.21 152.41 115.2 159.62"/><rect class="cls-1" x="130.38" y="152.62" width="5" height="15"/><rect class="cls-1" x="86.38" y="152.62" width="5" height="15"/><rect class="cls-1" x="100.38" y="180.62" width="20" height="12"/><rect class="cls-1" x="83.38" y="192.62" width="55" height="91"/><rect class="cls-1" x="90.42" y="413.12" width="12.34" height="26.45" transform="translate(-330.2 520.95) rotate(-89.73)"/><polygon class="cls-1" points="92.54 420.15 83.14 420.11 83.34 432.45 92.48 432.49 92.54 420.15"/><rect class="cls-1" x="99.41" y="422.12" width="12.34" height="8.52" transform="translate(-321.28 530.01) rotate(-89.74)"/><rect class="cls-1" x="130.21" y="413.12" width="12.34" height="26.45" transform="translate(-290.58 560.75) rotate(-89.73)"/><polygon class="cls-1" points="132.34 420.15 122.94 420.11 123.13 432.45 132.28 432.49 132.34 420.15"/><rect class="cls-1" x="139.21" y="422.13" width="12.34" height="8.51" transform="translate(-281.66 569.81) rotate(-89.74)"/><rect class="cls-1" x="114.88" y="192.62" width="11.25" height="14"/><rect class="cls-1" x="126.04" y="192.62" width="11.25" height="14"/><rect class="cls-1" x="93.5" y="192.62" width="21.38" height="14"/><rect class="cls-1" x="93.5" y="192.62" width="10.13" height="14"/><rect class="cls-1" x="83.38" y="192.62" width="10.13" height="14"/><line class="cls-1" x1="138.38" y1="270.62" x2="138.38" y2="256.62"/><line class="cls-1" x1="138.38" y1="270.62" x2="138.38" y2="265.62"/><line class="cls-1" x1="138.38" y1="260.62" x2="138.38" y2="256.62"/><rect class="cls-1" x="91.38" y="140.62" width="39" height="40"/><path class="cls-1" d="M129.87,149.49"/><rect class="cls-1" x="83.38" y="283.62" width="15" height="136"/><rect class="cls-1" x="123.38" y="283.62" width="15" height="136"/><circle class="cls-1" cx="110.38" cy="129.37" r="3.77"/><line class="cls-1" x1="110.38" y1="132.62" x2="110.38" y2="140.62"/><polygon class="cls-1" points="162.41 122.18 187.27 152.81 138.11 192.73 138.38 211.51 196.73 164.45 208.12 155.2 163.99 100.86 152.6 110.11 162.41 122.18"/><rect class="cls-1" x="156.28" y="103.6" width="14" height="15" transform="translate(-33.51 127.78) rotate(-39.08)"/><rect class="cls-1" x="164.28" y="100.76" width="5" height="15" transform="translate(-30.94 129.34) rotate(-39.08)"/><rect class="cls-1" x="157.4" y="106.75" width="4" height="15" transform="translate(-36.36 126.04) rotate(-39.08)"/><polygon class="cls-1" points="52.36 138.74 39.08 175.89 83.38 192.62 83.38 207.66 34.03 190.01 20.21 185.07 43.78 119.16 57.6 124.1 52.36 138.74"/><rect class="cls-1" x="40.35" y="121.58" width="15" height="14" transform="translate(-89.33 130.34) rotate(-70.32)"/><rect class="cls-1" x="36.11" y="124.56" width="15" height="5" transform="translate(-90.71 125.34) rotate(-70.32)"/><rect class="cls-1" x="45.06" y="128.26" width="15" height="4" transform="translate(-87.79 135.88) rotate(-70.32)"/><line class="cls-1" x1="95.04" y1="145.76" x2="101.73" y2="149.76"/><circle class="cls-1" cx="121.81" cy="153.38" r="3.77"/><line class="cls-1" x1="127.45" y1="145.76" x2="120.76" y2="149.76"/><rect class="cls-1" x="99.38" y="164.6" width="24" height="11"/><rect class="cls-1" x="99.38" y="164.6" width="24" height="4"/><rect class="cls-1" x="99.38" y="164.6" width="4" height="4"/><rect class="cls-1" x="103.38" y="164.6" width="4" height="4"/><rect class="cls-1" x="107.38" y="164.6" width="4" height="4"/><rect class="cls-1" x="111.38" y="164.6" width="4" height="4"/><rect class="cls-1" x="115.38" y="164.6" width="4" height="4"/><path class="cls-1" d="M145.63,121.33"/><polyline class="cls-1" points="154.13 112.59 142.38 121.33 148.25 140.62 159.4 118.48"/><polyline class="cls-1" points="165.68 102.95 180.38 73.59 197.13 97.34 170.13 107.17"/><polygon class="cls-1" points="42.58 122.53 9.88 109.84 1.63 123.59 40.13 129.37 42.58 122.53"/><polygon class="cls-1" points="56.54 127.06 81.38 124.59 75.13 140.62 54.55 132.62 56.54 127.06"/><path class="cls-1" d="M100.79,20.24c-.15-2.72-2.86-6.18-6.17-7.93-4-2.11-8.23-2.88-10,.47-1.67,3.16,1.81,5.74,5.58,8.35,6.54,4.57,13.35,9.77,8.89,18.21-3.43,6.47-10.77,7.25-16.94,4.53L79.6,48.67l-6.09-3.22,2.41-4.55c-5.11-3.32-8.81-8.41-8.26-14.87l6.92.6c-.33,3.75,2.9,8,6.87,10.08,4.31,2.29,9.08,2.91,11.06-.83,1.67-3.16-1.69-6.42-5.87-9.31-6.45-4.39-12.52-9.14-8.31-17.1,3.33-6.28,10.41-6.21,16.32-3.94l2.21-4.17,6.09,3.22-2.21,4.17c3.74,2.78,6.67,6.29,6.49,11.84Z"/><path class="cls-1" d="M66.12,86.4c-.36-1.53-2.26-3.23-4.32-3.89-2.48-.8-5-.81-5.65,1.28s1.61,3.09,4,4.19c4.18,1.94,8.59,4.21,6.9,9.46-1.29,4-5.39,5.22-9.18,4.3l-1,3-3.79-1.22.91-2.84C50.82,99.3,48.2,96.78,47.85,93l4-.36c.19,2.17,2.46,4.25,4.93,5,2.69.86,5.46.73,6.21-1.6.63-2-1.62-3.48-4.29-4.7-4.12-1.85-8.05-3.94-6.46-8.89,1.25-3.91,5.29-4.59,8.89-3.9L62,76l3.79,1.22-.83,2.6c2.41,1.2,4.44,2.91,4.89,6.08Z"/><path class="cls-1" d="M136.8,55.06c-1.88-1-5.3-.62-7.82.88-3,1.79-5.29,4.31-3.78,6.87s4.57,1.14,7.86-.31c5.72-2.5,12-4.92,15.79,1.51,2.92,4.93.43,10.15-3.9,13.16l2.16,3.65-4.64,2.75-2.05-3.47c-4.31,2.06-9.21,2.44-13.31-.56l3.23-4.38c2.37,1.75,6.51,1.33,9.54-.46,3.29-1.95,5.65-4.87,4-7.73-1.43-2.41-5-1.49-8.62.11-5.57,2.51-11.22,4.62-14.81-1.45-2.83-4.79.11-9.49,4-12.51L122.58,50l4.64-2.75,1.88,3.18c3.39-1.36,6.93-1.88,10.56.51Z"/></g></g></svg>