<svg xmlns="http://www.w3.org/2000/svg" viewBox="0 0 158.47 358.32"><defs><style>.cls-1,.cls-2{fill:none;stroke:#fff;stroke-width:2px;}.cls-1{stroke-miterlimit:10;}.cls-2{stroke-linejoin:round;}</style></defs><title>Fichier 8</title><g id="Calque_2" data-name="Calque 2"><g id="Calque_2-2" data-name="Calque 2"><circle class="cls-1" cx="25.55" cy="80.11" r="3.77"/><circle class="cls-1" cx="46.39" cy="80.56" r="3.77"/><polygon class="cls-1" points="40.08 87.36 32.09 87.36 36.08 80.15 36.08 80.15 40.08 87.36"/><rect class="cls-1" x="55.25" y="77.36" width="5" height="15"/><rect class="cls-1" x="11.25" y="77.36" width="5" height="15"/><polygon class="cls-1" points="36.03 99.07 26.16 99.07 29.5 93.35 36.03 93.35 36.03 99.07"/><polygon class="cls-1" points="36.38 99.07 46.25 99.07 42.91 93.35 36.38 93.35 36.38 99.07"/><rect class="cls-1" x="25.25" y="105.36" width="20" height="12"/><rect class="cls-1" x="1.25" y="117.36" width="55" height="91"/><rect class="cls-1" x="8.29" y="337.86" width="12.34" height="26.45" transform="translate(-336.68 363.91) rotate(-89.73)"/><polygon class="cls-1" points="10.41 344.89 1.02 344.85 1.21 357.19 10.35 357.23 10.41 344.89"/><rect class="cls-1" x="17.28" y="346.86" width="12.34" height="8.52" transform="translate(-327.77 372.97) rotate(-89.74)"/><rect class="cls-1" x="48.09" y="337.86" width="12.34" height="26.45" transform="translate(-297.07 403.71) rotate(-89.73)"/><polygon class="cls-1" points="50.21 344.89 40.81 344.85 41.01 357.19 50.15 357.23 50.21 344.89"/><rect class="cls-1" x="57.08" y="346.86" width="12.34" height="8.51" transform="translate(-288.15 412.77) rotate(-89.74)"/><polygon class="cls-1" points="55.7 180.69 16.25 180.68 16.25 117.36 1.25 117.36 1.25 180.68 1.25 195.35 71.25 195.35 71.25 180.68 55.7 180.69"/><rect class="cls-1" x="16.25" y="117.36" width="40" height="14"/><rect class="cls-1" x="35.25" y="117.36" width="21" height="14"/><rect class="cls-1" x="35.25" y="117.36" width="10" height="14"/><rect class="cls-1" x="16.25" y="117.36" width="19" height="14"/><rect class="cls-1" x="16.25" y="117.36" width="9" height="14"/><rect class="cls-1" x="56.25" y="181.36" width="15" height="14"/><rect class="cls-1" x="56.25" y="190.36" width="15" height="5"/><rect class="cls-1" x="56.25" y="181.36" width="15" height="4"/><polyline class="cls-2" points="115.59 118.01 113.57 120.02 85.77 147.82 55.74 117.01 55.87 139.02 75.22 158.37 85.77 168.92 118.25 136.44"/><rect class="cls-2" x="120.53" y="122.84" width="4.98" height="14.93" transform="translate(-7.5 253.09) rotate(-89.9)"/><rect class="cls-2" x="120.54" y="112.89" width="4.97" height="14.93" transform="translate(2.45 243.16) rotate(-89.89)"/><rect class="cls-1" x="16.25" y="65.36" width="39" height="40"/><path class="cls-1" d="M54.74,74.22"/><rect class="cls-1" x="1.25" y="208.36" width="15" height="136"/><rect class="cls-1" x="41.25" y="208.36" width="15" height="136"/><circle class="cls-1" cx="36.05" cy="55.11" r="3.77"/><line class="cls-1" x1="35.25" y1="57.36" x2="35.25" y2="65.36"/><line class="cls-1" x1="31.25" y1="93.33" x2="31.25" y2="99.33"/><line class="cls-1" x1="41.25" y1="93.33" x2="41.25" y2="99.33"/><circle class="cls-2" cx="120.86" cy="37.61" r="36.61"/><rect class="cls-2" x="101.25" y="33.33" width="40" height="10"/><polyline class="cls-2" points="118.25 132.33 118.25 212.33 125.25 212.33 125.25 132.33"/><polyline class="cls-2" points="125.25 118.33 125.25 74.33 118.25 74.33 118.25 118.33"/><line class="cls-2" x1="115.55" y1="117.96" x2="115.56" y2="129.58"/><line class="cls-2" x1="130.59" y1="117.85" x2="130.47" y2="132.8"/></g></g></svg>