<svg xmlns="http://www.w3.org/2000/svg" viewBox="0 0 216.35 242.96"><defs><style>.cls-1{fill:none;stroke:#fff;stroke-miterlimit:10;stroke-width:2px;}</style></defs><title>Fichier 18</title><g id="Calque_2" data-name="Calque 2"><g id="Calque_2-2" data-name="Calque 2"><rect class="cls-1" x="134.5" y="67.6" width="55" height="79"/><polygon class="cls-1" points="134.99 131.61 174.5 131.6 174.5 67.6 189.5 67.6 189.5 131.6 189.5 146.6 119.5 146.6 119.5 131.6 134.99 131.61"/><rect class="cls-1" x="119.5" y="131.6" width="15" height="15"/><rect class="cls-1" x="119.5" y="141.6" width="15" height="5"/><rect class="cls-1" x="119.5" y="131.6" width="15" height="5"/><polyline class="cls-1" points="119.5 137.21 85.25 102.96 95.86 92.35 106.8 103.31 134.75 131.24"/><rect class="cls-1" x="88.36" y="95.46" width="15" height="15" transform="translate(-44.73 97.9) rotate(-44.99)"/><rect class="cls-1" x="89.82" y="98.99" width="5" height="15" transform="translate(-48.26 96.44) rotate(-44.99)"/><rect class="cls-1" x="96.89" y="91.92" width="5" height="15" transform="translate(-41.19 99.39) rotate(-45)"/><polyline class="cls-1" points="134.5 161.6 134.5 228.6 119.5 228.6 119.5 146.6"/><rect class="cls-1" x="107.5" y="228.6" width="27" height="12"/><rect class="cls-1" x="125.5" y="228.6" width="9" height="12"/><rect class="cls-1" x="140.38" y="228.6" width="9" height="12"/><rect class="cls-1" x="134.5" y="228.6" width="5.88" height="12"/><rect class="cls-1" x="107.5" y="228.6" width="9" height="12"/><rect class="cls-1" x="144.42" y="67.94" width="9.92" height="14"/><rect class="cls-1" x="134.5" y="67.94" width="9.92" height="14"/><rect class="cls-1" x="154.33" y="68.02" width="9.92" height="14"/><rect class="cls-1" x="164.25" y="68.02" width="9.92" height="14"/><polygon class="cls-1" points="134.5 146.6 134.5 154.98 134.38 228.6 149.5 228.6 149.5 161.6 149.5 161.6 189.5 161.6 189.5 146.6 134.5 146.6"/><rect class="cls-1" x="1" y="138.96" width="81" height="9"/><polygon class="cls-1" points="45 220.96 45 147.96 38 147.96 38 220.96 23 241.96 30 241.96 38 230.76 38 241.96 45 241.96 45 230.76 53 241.96 60 241.96 45 220.96"/><rect class="cls-1" x="53.5" y="112.6" width="18" height="22"/><path class="cls-1" d="M71.78,112.85c3.74,0,6.78,3.42,6.78,7.64s-3,7.64-6.78,7.64"/><path class="cls-1" d="M20.56,102.85c-4.79,0-8.67,4.37-8.67,9.76s3.88,9.76,8.67,9.76"/><rect class="cls-1" x="53.5" y="112.6" width="18" height="4"/><rect class="cls-1" x="21.5" y="101.6" width="24" height="37"/><polygon class="cls-1" points="45.5 101.6 50.5 101.6 45.5 108.96 45.5 101.6"/><path class="cls-1" d="M21.5,101.48c0-3.52,5.37-6.38,12-6.38s12,2.85,12,6.38"/><circle class="cls-1" cx="33.69" cy="92.54" r="1.77"/><polygon class="cls-1" points="73 138.97 52.5 138.6 49.5 134.6 75.5 134.6 73 138.97"/><rect class="cls-1" x="149.5" y="161.6" width="54" height="11"/><rect class="cls-1" x="189.5" y="79.6" width="14" height="82"/><polygon class="cls-1" points="203.5 172.6 215.17 240.6 205.33 240.6 193.83 172.6 203.5 172.6"/><polygon class="cls-1" points="160.5 172.6 172.17 240.6 162.33 240.6 150.83 172.6 160.5 172.6"/><polygon class="cls-1" points="160.5 172.6 149.5 161.6 149.5 161.6 149.5 161.6 160.5 172.6"/><polygon class="cls-1" points="173.5 172.6 162.5 161.6 162.5 161.6 162.5 161.6 173.5 172.6"/><line class="cls-1" x1="162.5" y1="161.6" x2="173.5" y2="172.6"/><line class="cls-1" x1="173.5" y1="172.6" x2="162.5" y2="161.6"/><line class="cls-1" x1="175.5" y1="161.6" x2="186.5" y2="172.6"/><line class="cls-1" x1="186.5" y1="172.6" x2="175.5" y2="161.6"/><line class="cls-1" x1="176.5" y1="161.6" x2="187.5" y2="172.6"/><line class="cls-1" x1="187.5" y1="172.6" x2="176.5" y2="161.6"/><line class="cls-1" x1="189.5" y1="161.6" x2="200.5" y2="172.6"/><line class="cls-1" x1="200.5" y1="172.6" x2="189.5" y2="161.6"/><line class="cls-1" x1="203.5" y1="161.6" x2="189.5" y2="149.85"/><line class="cls-1" x1="203.5" y1="148.6" x2="189.5" y2="136.85"/><line class="cls-1" x1="203.5" y1="148.6" x2="189.5" y2="136.85"/><line class="cls-1" x1="203.5" y1="136.6" x2="189.5" y2="124.85"/><line class="cls-1" x1="203.5" y1="123.6" x2="189.5" y2="111.85"/><line class="cls-1" x1="203.5" y1="123.6" x2="189.5" y2="111.85"/><line class="cls-1" x1="203.5" y1="110.6" x2="189.5" y2="98.85"/><line class="cls-1" x1="203.5" y1="98.6" x2="189.5" y2="86.85"/><line class="cls-1" x1="203.5" y1="98.6" x2="189.5" y2="86.85"/><circle class="cls-1" cx="146.2" cy="30.77" r="3.77"/><circle class="cls-1" cx="167.04" cy="31.22" r="3.77"/><polygon class="cls-1" points="160.72 38.02 152.73 38.02 156.72 30.81 156.72 30.81 160.72 38.02"/><rect class="cls-1" x="148.89" y="43.02" width="16" height="7"/><rect class="cls-1" x="175.89" y="28.02" width="5" height="15"/><rect class="cls-1" x="131.89" y="28.02" width="5" height="15"/><rect class="cls-1" x="148.89" y="43.02" width="8" height="7"/><rect class="cls-1" x="148.89" y="43.02" width="4" height="7"/><rect class="cls-1" x="160.89" y="43.02" width="4" height="7"/><rect class="cls-1" x="145.89" y="56.02" width="20" height="12"/><rect class="cls-1" x="136.89" y="16.02" width="39" height="40"/><path class="cls-1" d="M175.39,24.88"/><circle class="cls-1" cx="156.69" cy="4.77" r="3.77"/><line class="cls-1" x1="156.69" y1="8.02" x2="156.69" y2="16.02"/></g></g></svg>