<svg xmlns="http://www.w3.org/2000/svg" viewBox="0 0 337.96 350.25"><defs><style>.cls-1,.cls-2{fill:none;stroke:#fff;stroke-miterlimit:10;stroke-width:2px;}.cls-2{stroke-linecap:round;}</style></defs><title>Fichier 4</title><g id="Calque_2" data-name="Calque 2"><g id="Calque_2-2" data-name="Calque 2"><circle class="cls-1" cx="6.6" cy="56.97" r="3.79" transform="translate(-0.92 0.11) rotate(-0.92)"/><line class="cls-1" x1="6.19" y1="53.33" x2="6.06" y2="45.33"/><polygon class="cls-1" points="51.36 20.4 45.22 16.27 18.06 36.72 20.21 43.86 51.36 20.4"/><rect class="cls-1" x="-3.03" y="20.25" width="65" height="7" transform="translate(-8.36 22.5) rotate(-36.98)"/><circle class="cls-1" cx="86.57" cy="71.55" r="9.52"/><circle class="cls-1" cx="139.2" cy="72.67" r="9.52"/><polygon class="cls-1" points="123.24 92.73 103.09 92.73 113.16 74.53 113.16 74.53 123.24 92.73"/><rect class="cls-1" x="159.96" y="77.73" width="13" height="38"/><rect class="cls-1" x="49.96" y="77.73" width="12" height="38"/><polygon class="cls-1" points="106.96 116.73 106.96 116.73 100.96 103.73 112.96 103.73 106.96 116.73"/><polygon class="cls-2" points="95.46 116.73 95.46 116.73 89.96 103.73 100.96 103.73 95.46 116.73"/><polygon class="cls-1" points="129.96 116.73 129.96 116.73 123.96 103.73 135.96 103.73 129.96 116.73"/><polygon class="cls-1" points="118.46 116.73 118.46 116.73 112.96 103.73 123.96 103.73 118.46 116.73"/><rect class="cls-1" x="83.96" y="147.73" width="55" height="28"/><rect class="cls-1" x="83.96" y="175.73" width="55" height="79"/><polygon class="cls-1" points="83.96 254.73 83.96 269.73 99.44 269.72 138.96 269.73 138.96 336.73 153.96 336.73 153.96 269.73 153.96 254.73 83.96 254.73"/><polyline class="cls-1" points="153.96 269.73 153.96 336.73 168.96 336.73 168.96 269.73 168.96 254.73 98.96 254.73"/><polygon class="cls-1" points="138.47 239.73 98.96 239.73 98.96 175.73 83.96 175.73 83.96 239.73 83.96 254.73 153.96 254.73 153.96 239.73 138.47 239.73"/><rect class="cls-1" x="98.96" y="175.73" width="40" height="13"/><rect class="cls-1" x="118.96" y="175.73" width="20" height="13"/><rect class="cls-1" x="118.96" y="175.73" width="10" height="13"/><rect class="cls-1" x="98.96" y="175.73" width="20" height="13"/><rect class="cls-1" x="98.96" y="175.73" width="10" height="13"/><rect class="cls-1" x="138.96" y="239.73" width="15" height="15"/><rect class="cls-1" x="138.96" y="249.73" width="15" height="5"/><rect class="cls-1" x="138.96" y="239.73" width="15" height="5"/><polyline class="cls-1" points="123.96 254.73 193.96 254.73 193.96 239.73 178.47 239.73 138.96 239.73 138.96 175.73 123.96 175.73"/><rect class="cls-1" x="178.96" y="239.73" width="15" height="15"/><rect class="cls-1" x="178.96" y="249.73" width="15" height="5"/><rect class="cls-1" x="178.96" y="239.73" width="15" height="5"/><rect class="cls-1" x="168.96" y="254.73" width="97" height="14"/><rect class="cls-1" x="197.96" y="175.73" width="68" height="54"/><polygon class="cls-1" points="252.96 254.73 212.96 254.73 227.96 249.73 236.96 249.73 252.96 254.73"/><rect class="cls-1" x="227.96" y="229.73" width="9" height="20"/><rect class="cls-1" x="260.96" y="268.73" width="5" height="80"/><rect class="cls-1" x="236.96" y="268.73" width="5" height="80"/><path class="cls-1" d="M160.29,67.67"/><polyline class="cls-1" points="332.96 192.73 332.96 212.73 276.96 212.73"/><polyline class="cls-1" points="280.96 157.73 300.96 157.73 300.96 106.73 332.96 106.73 332.96 183.73"/><polyline class="cls-1" points="238.96 104.73 238.96 157.73 271.96 157.73"/><polyline class="cls-1" points="159.96 129.73 192.63 129.73 192.79 71.73 238.96 71.73 238.96 95.73"/><rect class="cls-1" x="265.96" y="212.73" width="11" height="4"/><circle class="cls-1" cx="238.62" cy="100.06" r="4.33"/><path class="cls-1" d="M281,158.06a4.33,4.33,0,1,1-8.67,0c0-.11,0-.22,0-.33a4.33,4.33,0,0,1,8.65.33Z"/><path class="cls-1" d="M337,188.06a4.33,4.33,0,1,1-4.33-4.33H333A4.33,4.33,0,0,1,337,188.06Z"/><polygon class="cls-1" points="106.96 125.73 106.96 125.73 100.96 138.73 112.96 138.73 106.96 125.73"/><polygon class="cls-1" points="95.46 125.73 95.46 125.73 89.96 138.73 100.96 138.73 95.46 125.73"/><polygon class="cls-1" points="129.96 125.73 129.96 125.73 123.96 138.73 135.96 138.73 129.96 125.73"/><polygon class="cls-1" points="118.46 125.73 118.46 125.73 112.96 138.73 123.96 138.73 118.46 125.73"/><rect class="cls-1" x="88.96" y="103.73" width="48" height="35"/><polygon class="cls-1" points="150.16 29.53 140.09 47.73 81.24 47.73 71.54 29.53 61.96 47.73 61.96 47.73 61.96 147.73 159.96 147.73 159.96 47.73 159.96 47.73 150.16 29.53"/><line class="cls-1" x1="61.96" y1="47.73" x2="159.96" y2="47.73"/><rect class="cls-1" x="146.27" y="329.69" width="12.41" height="26.58" transform="translate(-191.22 493.86) rotate(-89.73)"/><polygon class="cls-1" points="148.4 336.76 138.96 336.73 139.15 349.13 148.34 349.17 148.4 336.76"/><rect class="cls-1" x="155.31" y="338.75" width="12.41" height="8.56" transform="translate(-182.25 502.97) rotate(-89.74)"/><rect class="cls-1" x="167.07" y="335.53" width="12.41" height="14.97" transform="translate(-170.53 514.7) rotate(-89.73)"/><rect class="cls-1" x="170.31" y="338.75" width="12.41" height="8.56" transform="translate(-167.32 517.97) rotate(-89.74)"/></g></g></svg>