<svg xmlns="http://www.w3.org/2000/svg" viewBox="0 0 178.92 358"><defs><style>.cls-1,.cls-2{fill:none;stroke:#fff;stroke-width:2px;}.cls-1{stroke-miterlimit:10;}.cls-2{stroke-linecap:square;stroke-linejoin:round;}.cls-3{fill:#fff;}</style></defs><title>Fichier 22</title><g id="Calque_2" data-name="Calque 2"><g id="Calque_2-2" data-name="Calque 2"><polyline class="cls-1" points="112.77 24.39 110.2 36 104.68 36"/><polyline class="cls-1" points="73.8 36 66.06 35.58 60.68 14.13 74.19 7.73"/><path class="cls-1" d="M69.68,18"/><path class="cls-1" d="M91.68,18"/><line class="cls-1" x1="106.85" y1="26" x2="107.35" y2="23.8"/><polyline class="cls-1" points="73.8 36 76.55 48 78.85 58 99.51 58 101.8 48 104.56 36"/><line class="cls-1" x1="69.68" y1="18" x2="71.51" y2="26"/><polygon class="cls-1" points="84.68 36 71.1 36 67.68 26 84.68 26 84.68 36"/><polygon class="cls-1" points="91.68 36 105.26 36 108.68 26 91.68 26 91.68 36"/><polyline class="cls-1" points="91.68 26 84.68 26 84.68 42 91.68 42"/><polygon class="cls-1" points="91.68 50 83.68 50 82.24 47 94.24 47 91.68 50"/><polygon class="cls-2" points="69.68 18 85.36 9.86 91.85 18 95.43 22.5 107.35 23.8 127.51 26 104.09 1 76.93 1.5 69.68 18"/><circle class="cls-1" cx="110.2" cy="42.23" r="5.65"/><circle class="cls-1" cx="68.2" cy="41.23" r="5.65"/><rect class="cls-3" x="97.93" y="42.23" width="1.31" height="1.31"/><polygon class="cls-1" points="79.68 59 53.51 82.67 79.68 197.67 79.68 59"/><polygon class="cls-1" points="79.24 59.08 44.74 69.62 1.24 269 79.68 269 79.24 59.08"/><rect class="cls-1" x="79.68" y="59" width="20" height="79"/><polyline class="cls-1" points="89.68 200 86.18 315 27.93 315 37.86 269"/><polygon class="cls-1" points="86.01 336 73.68 336 73.68 315 86.18 315 86.01 336"/><polygon class="cls-1" points="86.01 336 86.18 357 79.68 357 79.68 348 67.93 357 58.68 357 73.68 336 86.01 336"/><polyline class="cls-1" points="89.93 200 93.43 315 151.68 315 141.75 269"/><polygon class="cls-1" points="93.59 336 105.68 336 105.68 315 93.43 315 93.59 336"/><polygon class="cls-1" points="93.59 336 93.43 357 99.68 357 99.68 348 111.68 357 120.93 357 105.93 336 93.59 336"/><line class="cls-1" x1="51.18" y1="134.25" x2="47.43" y2="183.38"/><polygon class="cls-1" points="99.68 59 125.84 82.67 99.68 197.67 99.68 59"/><polygon class="cls-1" points="99.68 59.08 134.18 69.62 177.68 269 99.24 269 99.68 59.08"/><line class="cls-1" x1="127.74" y1="134.25" x2="131.49" y2="183.38"/></g></g></svg>