<svg xmlns="http://www.w3.org/2000/svg" viewBox="0 0 245.43 279.53"><defs><style>.cls-1{fill:none;stroke:#fff;stroke-miterlimit:10;stroke-width:2px;}</style></defs><title>Fichier 3</title><g id="Calque_2" data-name="Calque 2"><g id="Calque_2-2" data-name="Calque 2"><circle class="cls-1" cx="27.09" cy="67.92" r="3.79"/><circle class="cls-1" cx="48.04" cy="68.37" r="3.79"/><circle class="cls-1" cx="4.79" cy="58.65" r="3.79"/><polygon class="cls-1" points="41.69 77 33.67 77 37.68 69.76 37.68 69.76 41.69 77"/><rect class="cls-1" x="29.43" y="82" width="17" height="5"/><line class="cls-1" x1="4.43" y1="55" x2="4.43" y2="47"/><rect class="cls-1" x="56.43" y="66" width="5" height="15"/><rect class="cls-1" x="12.43" y="66" width="5" height="15"/><rect class="cls-1" x="29.43" y="82" width="9" height="5"/><rect class="cls-1" x="29.43" y="82" width="4" height="5"/><rect class="cls-1" x="42.43" y="82" width="4" height="5"/><rect class="cls-1" x="27.43" y="94" width="20" height="11"/><rect class="cls-1" x="2.43" y="105" width="55" height="79"/><rect class="cls-1" x="64.74" y="258.97" width="12.41" height="26.58" transform="translate(-201.64 341.94) rotate(-89.73)"/><polygon class="cls-1" points="66.88 266.04 57.43 266 57.63 278.4 66.82 278.44 66.88 266.04"/><rect class="cls-1" x="73.78" y="268.02" width="12.41" height="8.56" transform="translate(-192.68 351.04) rotate(-89.74)"/><polygon class="cls-1" points="2.43 184 2.43 199 17.92 198.99 57.43 199 57.43 266 72.43 266 72.43 199 72.43 184 2.43 184"/><rect class="cls-1" x="85.55" y="264.8" width="12.41" height="14.97" transform="translate(-180.96 362.77) rotate(-89.73)"/><rect class="cls-1" x="88.78" y="268.02" width="12.41" height="8.56" transform="translate(-177.75 366.04) rotate(-89.74)"/><polyline class="cls-1" points="72.43 199 72.43 266 87.43 266 87.43 199 87.43 184 17.43 184"/><polygon class="cls-1" points="56.95 169.01 17.43 169 17.43 105 2.43 105 2.43 169 2.43 184 72.43 184 72.43 169 56.95 169.01"/><rect class="cls-1" x="17.43" y="105" width="40" height="13"/><rect class="cls-1" x="37.43" y="105" width="20" height="13"/><rect class="cls-1" x="37.43" y="105" width="10" height="13"/><rect class="cls-1" x="17.43" y="105" width="20" height="13"/><rect class="cls-1" x="17.43" y="105" width="10" height="13"/><rect class="cls-1" x="57.43" y="169" width="15" height="15"/><rect class="cls-1" x="57.43" y="179" width="15" height="5"/><rect class="cls-1" x="57.43" y="169" width="15" height="5"/><polyline class="cls-1" points="42.43 184 112.43 184 112.43 169 96.94 169.01 57.43 169 57.43 105 42.43 105"/><rect class="cls-1" x="97.43" y="169" width="15" height="15"/><rect class="cls-1" x="97.43" y="179" width="15" height="5"/><rect class="cls-1" x="97.43" y="169" width="15" height="5"/><polygon class="cls-1" points="54.02 47 20.02 47 17.43 54 17.43 94 56.43 94 56.43 54 54.02 47"/><line class="cls-1" x1="17.43" y1="54" x2="56.43" y2="54"/><rect class="cls-1" x="4.43" y="40" width="65" height="7"/><rect class="cls-1" x="87.43" y="184" width="97" height="14"/><rect class="cls-1" x="116.43" y="105" width="68" height="54"/><polygon class="cls-1" points="171.43 184 131.43 184 146.43 179 155.43 179 171.43 184"/><rect class="cls-1" x="146.43" y="159" width="9" height="20"/><rect class="cls-1" x="179.43" y="198" width="5" height="80"/><rect class="cls-1" x="155.43" y="198" width="5" height="80"/><path class="cls-1" d="M56.43,62"/><polyline class="cls-1" points="240.43 122 240.43 142 184.43 142"/><polyline class="cls-1" points="188.43 87 208.43 87 208.43 36 240.43 36 240.43 113"/><polyline class="cls-1" points="146.43 34 146.43 87 179.43 87"/><polyline class="cls-1" points="56.43 59 87.43 59 87.43 1 146.43 1 146.43 25"/><rect class="cls-1" x="184.43" y="142" width="11" height="4"/><circle class="cls-1" cx="146.1" cy="29.33" r="4.33"/><path class="cls-1" d="M188.43,87.33a4.33,4.33,0,1,1-8.67,0c0-.11,0-.22,0-.33a4.33,4.33,0,0,1,8.65.33Z"/><path class="cls-1" d="M244.43,117.33A4.33,4.33,0,1,1,240.1,113h.33A4.33,4.33,0,0,1,244.43,117.33Z"/></g></g></svg>