<?xml version="1.0" encoding="utf-8"?>
<!-- Generator: Adobe Illustrator 21.1.0, SVG Export Plug-In . SVG Version: 6.00 Build 0)  -->
<svg version="1.1" id="Calque_1" xmlns="http://www.w3.org/2000/svg" xmlns:xlink="http://www.w3.org/1999/xlink" x="0px" y="0px"
	 viewBox="0 0 257 240" style="enable-background:new 0 0 257 240;" xml:space="preserve">
<style type="text/css">
	.st0{fill:none;stroke:#FFFFFF;stroke-width:2;stroke-miterlimit:10;}
</style>
<title>Fichier 20</title>
<g id="Calque_2">
	<g id="Calque_2-2">
		<rect x="88" y="14.5" class="st0" width="39" height="40"/>
		<circle class="st0" cx="98" cy="28.4" r="3.8"/>
		<circle class="st0" cx="118.9" cy="28.9" r="3.8"/>
		<circle class="st0" cx="108.7" cy="4.8" r="3.8"/>
		<polygon class="st0" points="108.6,30.2 108.6,30.2 104.6,37.5 112.6,37.5 		"/>
		<rect x="100" y="41.5" class="st0" width="17" height="5"/>
		<line class="st0" x1="108.6" y1="14.9" x2="108.7" y2="8.6"/>
		<rect x="127" y="26.5" class="st0" width="5" height="15"/>
		<rect x="83" y="26.5" class="st0" width="5" height="15"/>
		<rect x="100" y="41.5" class="st0" width="9" height="5"/>
		<rect x="100" y="41.5" class="st0" width="4" height="5"/>
		<rect x="113" y="41.5" class="st0" width="4" height="5"/>
		<rect x="98" y="54.5" class="st0" width="20" height="11"/>
		<rect x="63" y="65.5" class="st0" width="55" height="79"/>
		
			<rect x="125.6" y="219.4" transform="matrix(4.712372e-03 -1 1 4.712372e-03 -101.5308 363.4548)" class="st0" width="12.4" height="26.6"/>
		<polygon class="st0" points="127.7,238.9 118.5,238.9 118.3,226.5 127.8,226.5 		"/>
		
			<rect x="134.7" y="228.5" transform="matrix(4.537840e-03 -1 1 4.537840e-03 -92.552 372.6184)" class="st0" width="12.4" height="8.6"/>
		<rect x="2.1" y="212.5" class="st0" width="12.4" height="26.2"/>
		
			<rect x="2.9" y="209.6" transform="matrix(4.712372e-03 -1 1 4.712372e-03 -208.5514 222.0754)" class="st0" width="8.8" height="12.4"/>
		
			<rect x="2.9" y="227.2" transform="matrix(4.537840e-03 -1 1 4.537840e-03 -226.1802 239.5394)" class="st0" width="8.6" height="12.4"/>
		<polygon class="st0" points="133,144.5 133,159.5 133,226.5 118,226.5 118,159.5 78.6,159.5 103.3,226.5 88.3,226.5 13,226.5 
			13,211.4 82.4,211.5 63,159.5 63,144.5 		"/>
		<polyline class="st0" points="118,159.5 83.3,159.5 63.2,159.5 		"/>
		<rect x="118" y="65.5" class="st0" width="91" height="13"/>
		<rect x="174" y="58.5" class="st0" width="82" height="7"/>
		<polygon class="st0" points="133,129.5 133,144.5 63,144.5 63,129.5 63,65.5 78,65.5 78,129.5 117.5,129.5 		"/>
		<rect x="78" y="65.5" class="st0" width="40" height="13"/>
		<rect x="98" y="65.5" class="st0" width="20" height="13"/>
		<rect x="98" y="65.5" class="st0" width="10" height="13"/>
		<rect x="78" y="65.5" class="st0" width="20" height="13"/>
		<rect x="78" y="65.5" class="st0" width="10" height="13"/>
		<rect x="209" y="65.5" class="st0" width="13" height="13"/>
		<rect x="209" y="74.5" class="st0" width="13" height="4"/>
		<rect x="209" y="65.5" class="st0" width="13" height="4"/>
		<rect x="118" y="129.5" class="st0" width="15" height="15"/>
		<rect x="118" y="139.5" class="st0" width="15" height="5"/>
		<rect x="118" y="129.5" class="st0" width="15" height="5"/>
		<rect x="181" y="51.5" class="st0" width="66" height="7"/>
		<rect x="181" y="43.5" class="st0" width="66" height="7"/>
		<rect x="181" y="36.5" class="st0" width="66" height="7"/>
		<rect x="181" y="29.5" class="st0" width="66" height="7"/>
	</g>
</g>
</svg>
