<svg xmlns="http://www.w3.org/2000/svg" viewBox="0 0 257.33 240.02"><defs><style>.cls-1{fill:none;stroke:#fff;stroke-miterlimit:10;stroke-width:2px;}</style></defs><title>Fichier 21</title><g id="Calque_2" data-name="Calque 2"><g id="Calque_2-2" data-name="Calque 2"><rect class="cls-1" x="88.33" y="14.49" width="39" height="40"/><circle class="cls-1" cx="98" cy="28.41" r="3.79"/><circle class="cls-1" cx="118.94" cy="28.85" r="3.79"/><circle class="cls-1" cx="108.69" cy="4.79" r="3.79"/><polygon class="cls-1" points="112.59 37.49 104.57 37.49 108.58 30.25 108.58 30.25 112.59 37.49"/><rect class="cls-1" x="100.33" y="41.49" width="17" height="5"/><line class="cls-1" x1="108.69" y1="8.58" x2="108.58" y2="14.93"/><rect class="cls-1" x="127.33" y="26.49" width="5" height="15"/><rect class="cls-1" x="83.33" y="26.49" width="5" height="15"/><rect class="cls-1" x="100.33" y="41.49" width="9" height="5"/><rect class="cls-1" x="100.33" y="41.49" width="4" height="5"/><rect class="cls-1" x="113.33" y="41.49" width="4" height="5"/><rect class="cls-1" x="98.33" y="54.49" width="20" height="11"/><rect class="cls-1" x="63.33" y="65.49" width="55" height="79"/><rect class="cls-1" x="125.64" y="219.46" width="12.41" height="26.58" transform="translate(-101.51 363.52) rotate(-89.73)"/><polygon class="cls-1" points="127.78 226.53 118.33 226.49 118.53 238.89 127.72 238.93 127.78 226.53"/><rect class="cls-1" x="134.69" y="228.51" width="12.41" height="8.56" transform="translate(-92.54 372.61) rotate(-89.74)"/><rect class="cls-1" x="-5.85" y="218.3" width="26.24" height="12.41" transform="translate(-217.26 230.72) rotate(-89.73)"/><rect class="cls-1" x="2.9" y="209.62" width="8.83" height="12.41" transform="translate(-208.54 222.13) rotate(-89.73)"/><rect class="cls-1" x="2.95" y="227.17" width="8.56" height="12.41" transform="translate(-226.18 239.54) rotate(-89.74)"/><polygon class="cls-1" points="63.34 144.49 63.34 159.49 82.75 211.49 13.34 211.41 13.34 226.49 88.33 226.49 103.33 226.49 78.82 159.48 118.33 159.49 118.33 226.49 133.34 226.49 133.34 159.49 133.34 144.49 63.34 144.49"/><polyline class="cls-1" points="63.34 159.48 83.33 159.49 118.33 159.49"/><rect class="cls-1" x="118.33" y="65.49" width="91" height="13"/><rect class="cls-1" x="174.33" y="58.49" width="82" height="7"/><polyline class="cls-1" points="213.34 28.49 231.34 28.49 228.84 58.49 215.84 58.49 213.34 28.49 231.34 28.49"/><polygon class="cls-1" points="229.91 45.54 214.75 45.43 214.34 36.49 230.67 36.49 229.91 45.54"/><polyline class="cls-1" points="224.34 28.49 224.34 7.49 233.34 7.49"/><polygon class="cls-1" points="117.85 129.5 78.33 129.49 78.33 65.49 63.34 65.49 63.34 129.49 63.34 144.49 133.34 144.49 133.34 129.49 117.85 129.5"/><rect class="cls-1" x="78.33" y="65.49" width="40" height="13"/><rect class="cls-1" x="98.33" y="65.49" width="20" height="13"/><rect class="cls-1" x="98.33" y="65.49" width="10" height="13"/><rect class="cls-1" x="78.33" y="65.49" width="20" height="13"/><rect class="cls-1" x="78.33" y="65.49" width="10" height="13"/><rect class="cls-1" x="209.33" y="65.49" width="13" height="13"/><rect class="cls-1" x="209.33" y="74.49" width="13" height="4"/><rect class="cls-1" x="209.33" y="65.49" width="13" height="4"/><rect class="cls-1" x="118.33" y="129.49" width="15" height="15"/><rect class="cls-1" x="118.33" y="139.49" width="15" height="5"/><rect class="cls-1" x="118.33" y="129.49" width="15" height="5"/></g></g></svg>