<svg xmlns="http://www.w3.org/2000/svg" viewBox="0 0 296.93 327.57"><defs><style>.cls-1{fill:none;stroke:#fff;stroke-miterlimit:10;stroke-width:2px;}</style></defs><title>Fichier 17</title><g id="Calque_2" data-name="Calque 2"><g id="Calque_2-2" data-name="Calque 2"><polyline class="cls-1" points="212.45 131.61 247.53 107.34 277.19 150.23"/><polyline class="cls-1" points="171.41 159.39 215.98 129.17 247.53 107.34 295.42 105.6 277.19 150.23 219.99 189.8"/><polyline class="cls-1" points="221.87 125.1 188.05 130.98 188.05 130.98 175.14 150.23 188.89 147.54"/><polyline class="cls-1" points="233.01 180.79 236.46 192.1 250.81 187.72 245.96 171.83"/><rect class="cls-1" x="78.43" y="80.09" width="33.97" height="34.84" transform="translate(-38.72 122.42) rotate(-56.14)"/><circle class="cls-1" cx="86.41" cy="101.44" r="3.3" transform="translate(-45.97 116.68) rotate(-56.14)"/><circle class="cls-1" cx="96.89" cy="86.5" r="3.3" transform="translate(-28.93 118.77) rotate(-56.14)"/><circle class="cls-1" cx="74.51" cy="82.24" r="3.3" transform="translate(-35.3 98.29) rotate(-56.14)"/><polygon class="cls-1" points="100.06 95.29 96.16 101.09 92.87 94.68 92.87 94.68 100.06 95.29"/><rect class="cls-1" x="95.37" y="99.22" width="14.81" height="4.35" transform="translate(-38.69 130.25) rotate(-56.14)"/><line class="cls-1" x1="77.25" y1="84.08" x2="81.79" y2="87.24"/><rect class="cls-1" x="103.55" y="74.83" width="4.36" height="13.06" transform="translate(-20.73 123.85) rotate(-56.15)"/><rect class="cls-1" x="82.2" y="106.65" width="4.35" height="13.06" transform="translate(-56.62 120.23) rotate(-56.16)"/><rect class="cls-1" x="96.91" y="102.11" width="7.84" height="4.35" transform="translate(-41.95 129.91) rotate(-56.14)"/><rect class="cls-1" x="97.88" y="103.92" width="3.48" height="4.35" transform="translate(-43.99 129.73) rotate(-56.15)"/><rect class="cls-1" x="104.19" y="94.52" width="3.48" height="4.35" transform="translate(-33.38 130.81) rotate(-56.15)"/><rect class="cls-1" x="105.39" y="104.73" width="17.42" height="9.58" transform="translate(-40.42 143.26) rotate(-56.14)"/><rect class="cls-1" x="122.19" y="97.3" width="47.9" height="68.81" transform="translate(-44.65 179.68) rotate(-56.14)"/><rect class="cls-1" x="186.27" y="246.29" width="10.81" height="23.15" transform="translate(-124 317.74) rotate(-64.12)"/><polygon class="cls-1" points="190.81 251.45 183.41 247.86 178.62 257.64 186.1 261.17 190.81 251.45"/><rect class="cls-1" x="193.35" y="257.58" width="10.81" height="7.45" transform="translate(-123.1 326.05) rotate(-64.12)"/><rect class="cls-1" x="123.02" y="101.5" width="9.95" height="11.32" transform="translate(-32.31 153.74) rotate(-56.14)"/><rect class="cls-1" x="128.87" y="93.8" width="8.73" height="11.32" transform="translate(-23.59 154.68) rotate(-56.14)"/><rect class="cls-1" x="109.73" y="113.89" width="19.9" height="11.32" transform="translate(-46.28 152.33) rotate(-56.14)"/><rect class="cls-1" x="111.93" y="118.02" width="9.95" height="11.32" transform="matrix(0.56, -0.83, 0.83, 0.56, -50.94, 151.83)"/><rect class="cls-1" x="106.77" y="125.88" width="9.69" height="11.32" transform="translate(-59.81 150.96) rotate(-56.15)"/><path class="cls-1" d="M140.32,244.91"/><line class="cls-1" x1="110.66" y1="202.03" x2="158.57" y2="168.88"/><polyline class="cls-1" points="205.47 199.84 140.32 244.91 131.63 232.35"/><polyline class="cls-1" points="119.05 214.16 110.66 202.03 158.57 168.88"/><polygon class="cls-1" points="90.78 260.93 78.19 242.73 133.63 204.38 170.25 192.5 146.22 222.57 90.78 260.93"/><polyline class="cls-1" points="155.86 170.76 115.06 177.53 59.62 215.88 69.8 230.6 144.57 178.88"/><polygon class="cls-1" points="109.66 288.21 99.47 273.49 185.23 214.16 165.09 249.86 109.66 288.21"/><rect class="cls-1" x="64.15" y="212.49" width="6.32" height="17.91" transform="translate(-114.03 77.62) rotate(-34.68)"/><rect class="cls-1" x="104" y="270.1" width="6.32" height="17.91" transform="translate(-139.72 110.52) rotate(-34.67)"/><rect class="cls-1" x="83.92" y="238.97" width="6.32" height="22.12" transform="translate(-126.78 93.95) rotate(-34.68)"/><rect class="cls-1" x="256.6" y="104.51" width="6.32" height="52.14" transform="translate(-28.16 170.97) rotate(-34.67)"/><rect class="cls-1" x="109.57" y="202.37" width="5.79" height="14.75" transform="translate(-99.34 101.23) rotate(-34.67)"/><rect class="cls-1" x="130.55" y="232.69" width="5.79" height="14.75" transform="matrix(0.82, -0.57, 0.57, 0.82, -112.87, 118.54)"/><polygon class="cls-1" points="69.8 230.6 12.2 270.45 28.11 248.56 11.56 239.3 46.09 231.81 30.51 219.79 61.81 219.06 69.8 230.6"/><polygon class="cls-1" points="99.47 273.49 41.86 313.33 67.91 306.09 70.71 324.81 89.89 295.12 95.64 313.93 107.36 284.89 99.47 273.49"/><polygon class="cls-1" points="58.92 286.16 87.28 255.87 81.79 247.93 43.45 263.78 53 267.84 20.38 279.74 29.45 284.13 1.32 309.36 1.42 309.5 34.95 292.07 35.82 302.14 58.48 275.8 58.92 286.16"/><polygon class="cls-1" points="169.76 158.32 169.76 158.32 161.4 170.78 206.95 200.81 183.14 248.32 196.55 255.04 226.64 194.99 169.76 158.32"/><rect class="cls-1" x="237.64" y="187.72" width="23.15" height="10.81" transform="translate(-46.96 85.02) rotate(-17.72)"/><polygon class="cls-1" points="244.18 189.07 236.34 191.57 239.62 201.97 247.47 199.36 244.18 189.07"/><rect class="cls-1" x="252.99" y="185.33" width="7.45" height="10.8" transform="translate(-45.87 87.18) rotate(-17.72)"/><rect class="cls-1" x="118.51" y="1.51" width="5" height="15" transform="translate(0.47 22.92) rotate(-10.84)"/><rect class="cls-1" x="109.68" y="3.29" width="4" height="15" transform="translate(-0.04 21.19) rotate(-10.84)"/><polygon class="cls-1" points="122.06 1.17 141.07 99.46 130.91 92.65 126.58 99.23 108.31 3.8 122.06 1.17"/><line class="cls-1" x1="111.13" y1="18.54" x2="124.88" y2="15.9"/><rect class="cls-1" x="14.67" y="154.46" width="15" height="5" transform="matrix(0.94, -0.34, 0.34, 0.94, -52.04, 16.88)"/><rect class="cls-1" x="17.9" y="163.89" width="15" height="4" transform="translate(-54.89 18.52) rotate(-19.87)"/><polygon class="cls-1" points="14.27 157.16 111.43 121.69 104.23 132.43 111.43 137.26 19.02 170.32 14.27 157.16"/><line class="cls-1" x1="33.13" y1="165.22" x2="28.37" y2="152.06"/></g></g></svg>