<svg xmlns="http://www.w3.org/2000/svg" viewBox="0 0 302.13 225"><defs><style>.cls-1,.cls-2{fill:none;stroke:#fff;stroke-width:2px;}.cls-1{stroke-miterlimit:10;}.cls-2{stroke-linecap:square;stroke-linejoin:round;}.cls-3{fill:#fff;}</style></defs><title>Fichier 19</title><g id="Calque_2" data-name="Calque 2"><g id="Calque_2-2" data-name="Calque 2"><rect class="cls-1" x="21" y="22" width="140" height="180"/><rect class="cls-1" x="8" y="8" width="169" height="208"/><rect class="cls-1" x="1" y="1" width="183" height="223"/><circle class="cls-1" cx="95.97" cy="71.78" r="3.77"/><circle class="cls-1" cx="116.81" cy="72.22" r="3.77"/><polygon class="cls-1" points="110.5 79.02 102.51 79.02 106.5 71.82 106.5 71.82 110.5 79.02"/><rect class="cls-1" x="98.67" y="84.02" width="16" height="7"/><rect class="cls-1" x="125.67" y="69.02" width="5" height="15"/><rect class="cls-1" x="81.67" y="69.02" width="5" height="15"/><rect class="cls-1" x="98.67" y="84.02" width="8" height="7"/><rect class="cls-1" x="98.67" y="84.02" width="4" height="7"/><rect class="cls-1" x="110.67" y="84.02" width="4" height="7"/><rect class="cls-1" x="95.67" y="97.02" width="20" height="12"/><line class="cls-1" x1="71.67" y1="109.02" x2="126.67" y2="109.02"/><polygon class="cls-1" points="126.12 172.36 86.67 172.35 86.67 109.02 71.67 109.02 71.67 172.35 71.67 187.02 141.67 187.02 141.67 172.35 126.12 172.36"/><rect class="cls-1" x="86.67" y="109.02" width="40" height="14"/><rect class="cls-1" x="105.67" y="109.02" width="21" height="14"/><rect class="cls-1" x="105.67" y="109.02" width="10" height="14"/><rect class="cls-1" x="86.67" y="109.02" width="19" height="14"/><rect class="cls-1" x="86.67" y="109.02" width="9" height="14"/><rect class="cls-1" x="126.67" y="173.02" width="15" height="14"/><rect class="cls-1" x="126.67" y="182.02" width="15" height="5"/><rect class="cls-1" x="126.67" y="173.02" width="15" height="4"/><rect class="cls-1" x="86.67" y="57.02" width="39" height="40"/><path class="cls-1" d="M125.16,65.89"/><circle class="cls-1" cx="106.47" cy="46.78" r="3.77"/><line class="cls-1" x1="105.67" y1="49.02" x2="105.67" y2="57.02"/><polygon class="cls-1" points="87.22 187.36 126.67 187.02 126.67 109.02 141.67 109.02 141.67 187.35 141.67 202.02 61.67 202.02 61.67 187.35 87.22 187.36"/><rect class="cls-1" x="61.67" y="188.02" width="15" height="14"/><rect class="cls-1" x="61.67" y="197.02" width="15" height="5"/><rect class="cls-1" x="61.67" y="188.02" width="15" height="4"/><path class="cls-1" d="M21,160.67S36.33,142.33,71.67,142"/><path class="cls-1" d="M141.67,142S161,138.71,161,131"/><polygon class="cls-2" points="301.13 24 301.13 80.94 225.47 80.94 213.62 94.28 213.62 82.01 213.62 24 301.13 24"/><path class="cls-3" d="M276.3,57.57c0,5.58-8.46,5.58-8.46,0S276.3,52,276.3,57.57Z"/><path class="cls-3" d="M262.08,50.47c0,5.58-8.46,5.58-8.46,0S262.08,44.89,262.08,50.47Z"/><path class="cls-3" d="M247.86,52.84c0,5.58-8.46,5.58-8.46,0S247.86,47.26,247.86,52.84Z"/></g></g></svg>