<svg xmlns="http://www.w3.org/2000/svg" viewBox="0 0 336.01 212.23"><defs><style>.cls-1{fill:#fff;stroke:#ffbc00;}.cls-1,.cls-2,.cls-3{stroke-miterlimit:10;}.cls-2,.cls-3{fill:none;stroke:#fff;}.cls-2{stroke-width:2.46px;}.cls-3{stroke-width:2px;}</style></defs><title>Fichier 4</title><g id="Calque_2" data-name="Calque 2"><g id="Calque_1-2" data-name="Calque 1"><path class="cls-1" d="M103.13,20.72A6.7,6.7,0,0,0,96,24.61a10.68,10.68,0,0,0-17.88,1H78A10.72,10.72,0,0,0,67.29,36a8.06,8.06,0,0,0-3.78,5A10.65,10.65,0,0,0,57.7,55.79a12,12,0,0,0,.83,15.55A12,12,0,0,0,68.11,87,9.32,9.32,0,0,0,74,92.14a12,12,0,0,0,21.72,6.12,6.71,6.71,0,0,0,7.39,4.47,41.51,41.51,0,0,0,0-82ZM86,100.55a9.37,9.37,0,0,1,0-18.74V79.14a12.06,12.06,0,0,0-11.89,10.2,6.68,6.68,0,0,1,2.52-12.88V73.78a9.34,9.34,0,0,0-9.32,10.33A9.37,9.37,0,0,1,70,65.75V63.07a12,12,0,0,0-10.17,5.62,9.34,9.34,0,0,1,.52-11.86l.67-.75-.53-.85a8,8,0,0,1,2.89-11.18,8,8,0,0,0,8,7V48.35A5.35,5.35,0,1,1,76.65,43h2.68a8,8,0,0,0-8-8,8.16,8.16,0,0,0-1.23.1A8,8,0,0,1,77,28.33,10.67,10.67,0,0,0,87.36,41.65V39a8,8,0,1,1,8-8V91.18A9.38,9.38,0,0,1,86,100.55Zm16.7-.46a4,4,0,0,1-4.65-4V27.34a4,4,0,0,1,4.65-4,38.83,38.83,0,0,1,0,76.73Z"/><path class="cls-1" d="M110.12,52.36V43h-2.68v9.37a1.34,1.34,0,0,1-1.34,1.34h-5.35v2.68h5.35A4,4,0,0,0,110.12,52.36Z"/><path class="cls-1" d="M108.78,40.31a4,4,0,1,0-4-4A4,4,0,0,0,108.78,40.31Zm0-5.35a1.34,1.34,0,1,1-1.34,1.34A1.34,1.34,0,0,1,108.78,35Z"/><path class="cls-1" d="M107.44,71.1v9.37h2.68V71.1a4,4,0,0,0-4-4h-5.35v2.68h5.35A1.34,1.34,0,0,1,107.44,71.1Z"/><path class="cls-1" d="M108.78,83.15a4,4,0,1,0,4,4A4,4,0,0,0,108.78,83.15Zm0,5.35a1.34,1.34,0,1,1,1.34-1.34A1.34,1.34,0,0,1,108.78,88.51Z"/><path class="cls-1" d="M118.15,56.38a4,4,0,0,1-4,4H100.75v2.68h13.39a6.7,6.7,0,0,0,6.69-6.69v-4h-2.68Z"/><path class="cls-1" d="M119.49,41.65a4,4,0,1,0,4,4A4,4,0,0,0,119.49,41.65Zm0,5.35a1.34,1.34,0,1,1,1.34-1.34A1.34,1.34,0,0,1,119.49,47Z"/><rect class="cls-1" x="118.15" y="67.09" width="2.68" height="13.39"/><rect class="cls-1" x="124.85" y="48.35" width="2.68" height="21.42"/><rect class="cls-1" x="124.85" y="72.44" width="2.68" height="2.68"/><rect class="cls-1" x="87.36" y="29.6" width="2.68" height="2.68"/><rect class="cls-1" x="80.67" y="60.39" width="2.68" height="2.68"/><rect class="cls-1" x="88.7" y="89.85" width="2.68" height="2.68"/><rect class="cls-1" x="65.94" y="69.76" width="2.68" height="2.68"/><rect class="cls-1" x="90.04" y="51.02" width="2.68" height="2.68"/><rect class="cls-1" x="64.6" y="53.7" width="2.68" height="2.68"/><polygon class="cls-2" points="1.23 1.23 1.23 126.49 166.48 126.49 203.59 165.23 203.59 129.12 203.59 1.23 1.23 1.23"/></g><g id="Calque_2-2" data-name="Calque 2"><path class="cls-3" d="M309.21,126A8.61,8.61,0,1,0,292,126"/><path class="cls-3" d="M261.57,125a8.62,8.62,0,0,0-17.23,0"/><ellipse class="cls-3" cx="278.54" cy="68.85" rx="8.61" ry="8.62"/><polyline class="cls-3" points="286.66 144.31 278.8 130.08 278.8 130.08 269.67 146.52 287.92 146.52 286.66 144.31"/><rect class="cls-3" x="256.81" y="157.3" width="40.45" height="10.79"/><line class="cls-3" x1="278.38" y1="76.41" x2="278.38" y2="95.29"/><polyline class="cls-3" points="235.24 154.61 224.46 154.61 224.46 122.25 235.24 122.25"/><rect class="cls-3" x="324.22" y="122.25" width="10.79" height="32.36"/><rect class="cls-3" x="275.69" y="157.3" width="21.57" height="10.79"/><rect class="cls-3" x="286.47" y="157.3" width="10.79" height="10.79"/><rect class="cls-3" x="256.81" y="157.3" width="10.79" height="10.79"/><rect class="cls-3" x="254.12" y="184.27" width="45.84" height="26.96"/><polyline class="cls-3" points="235.24 143.82 235.24 184.27 324.22 184.27 324.22 95.29 235.24 95.29 235.24 127.64"/><path class="cls-3" d="M233.87,112.54"/><polygon class="cls-3" points="262.14 141.13 235.24 141.13 235.24 124.95 271.24 124.95 262.14 141.13"/><polygon class="cls-3" points="296.26 141.13 324.22 141.13 324.22 124.95 287.15 124.95 296.26 141.13"/></g></g></svg>