<svg xmlns="http://www.w3.org/2000/svg" viewBox="0 0 327.99 208.23"><defs><style>.cls-1,.cls-2{fill:none;stroke:#fff;stroke-miterlimit:10;}.cls-1{stroke-width:2px;}.cls-2{stroke-width:2.46px;}</style></defs><title>Fichier 3</title><g id="Calque_2" data-name="Calque 2"><g id="Calque_1-2" data-name="Calque 1"><rect class="cls-1" x="158.54" y="82.42" width="58.03" height="28.81"/><rect class="cls-1" x="242.44" y="82.42" width="58.03" height="28.81"/><rect class="cls-1" x="200.49" y="14.23" width="58.03" height="37.03"/><polyline class="cls-1" points="229.51 51.26 229.51 67.94 186.76 67.94 186.76 81.95"/><polyline class="cls-1" points="229.39 67.94 271.76 67.94 271.76 81.95"/><polygon class="cls-2" points="326.76 1.23 326.76 126.49 161.51 126.49 124.4 165.23 124.4 129.12 124.4 1.23 326.76 1.23"/></g><g id="Calque_2-2" data-name="Calque 2"><rect class="cls-1" x="11.67" y="92.74" width="87.47" height="90.32"/><circle class="cls-1" cx="34.02" cy="124.5" r="8.47"/><circle class="cls-1" cx="80.84" cy="125.5" r="8.47"/><circle class="cls-1" cx="57.93" cy="71.7" r="8.47"/><polygon class="cls-1" points="66.65 144.65 48.71 144.65 57.68 128.46 57.68 128.46 66.65 144.65"/><rect class="cls-1" x="39.4" y="153.18" width="37.69" height="12.09"/><line class="cls-1" x1="57.93" y1="80.17" x2="57.68" y2="94.36"/><rect class="cls-1" x="99.14" y="120.47" width="11.38" height="32.71"/><rect class="cls-1" x="1" y="120.47" width="10.67" height="32.71"/><rect class="cls-1" x="39.4" y="153.18" width="19.91" height="12.09"/><rect class="cls-1" x="39.4" y="153.18" width="8.53" height="12.09"/><rect class="cls-1" x="67.85" y="153.18" width="9.24" height="12.09"/><rect class="cls-1" x="35.14" y="183.05" width="44.09" height="24.18"/></g></g></svg>